<?xml version="1.0" encoding="utf-8"?>
<!-- Generator: Adobe Illustrator 23.0.1, SVG Export Plug-In . SVG Version: 6.00 Build 0)  -->
<svg version="1.1" id="Layer_1" xmlns="http://www.w3.org/2000/svg" xmlns:xlink="http://www.w3.org/1999/xlink" x="0px" y="0px"
	 viewBox="0 0 32 32" style="enable-background:new 0 0 32 32;" xml:space="preserve">
<style type="text/css">
	.st0{fill:#FAD426;}
</style>
<g>
	<rect class="st0" width="32" height="32"/>
	<g>
		<path d="M18.8,21.4c2-1,3.2-3.2,3.2-5.8c0-3.8-2.4-6.2-5.8-6.2H9.4v19.2h3V22h3.2l3.8,6.6h3.4v-0.4L18.8,21.4z M16.3,19.2h-3.9V12
			h3.8c1.6,0,2.8,1.6,2.8,3.6C19,17.6,17.8,19.1,16.3,19.2z"/>
		<polygon points="16.2,7.6 19.6,3.6 19.6,3.4 16.8,3.4 14.8,5.8 12.8,3.4 10,3.4 10,3.8 13.4,7.6 		"/>
	</g>
</g>
</svg>
