<svg id="Layer_1" data-name="Layer 1" xmlns="http://www.w3.org/2000/svg" viewBox="0 0 64 64"><defs><style>.cls-1{fill:#343a40;}.cls-2,.cls-3,.cls-4{fill:none;}.cls-2{stroke:#ffd300;}.cls-2,.cls-3{stroke-linecap:round;stroke-linejoin:round;stroke-width:2px;}.cls-3{stroke:#fff;}.cls-5{fill-rule:evenodd;}</style></defs><circle class="cls-1" cx="32" cy="32" r="32"/><g id="Navrh-webu"><g id="_1" data-name="1"><g id="Header"><g id="logo"><path id="Stroke-2" class="cls-2" d="M457.22,217.25c.46-.81,1.16-5.42-2.8-5.36" transform="translate(-439.1 -190.52)"/><path id="Stroke-3" class="cls-2" d="M452.07,210.07c4.66-4.28,7.64,1.3,7.64,1.3" transform="translate(-439.1 -190.52)"/><path id="Stroke-4" class="cls-2" d="M453.85,206.21c2.43-6.55,8.5-4,12.35.3" transform="translate(-439.1 -190.52)"/><path id="Stroke-5" class="cls-2" d="M460.6,200.27c2.1-1.6,7.88-1.45,9.81,1.44" transform="translate(-439.1 -190.52)"/><path id="Stroke-6" class="cls-2" d="M471.77,203.55s8-7.55,11.34-1.76" transform="translate(-439.1 -190.52)"/><path id="Stroke-7" class="cls-2" d="M481.18,204.24s6.37,1,4.88,6.66" transform="translate(-439.1 -190.52)"/><path id="Stroke-8" class="cls-2" d="M484.07,208.93c-1.84,0-3.29,2.88-1.9,6.53" transform="translate(-439.1 -190.52)"/><path id="Stroke-10" class="cls-3" d="M463,217.48a5,5,0,0,1,6.85-1.43" transform="translate(-439.1 -190.52)"/><path id="Stroke-12" class="cls-3" d="M473.26,215.22a4.43,4.43,0,0,1,6.13-.36" transform="translate(-439.1 -190.52)"/><path id="Fill-13" class="cls-4" d="M460.29,219.07c-1.06-.73-2.19.33-2.51,1.66-.55,2.3.13,4.27.9,6.34.57,1.5,1.57,2.31,2.26.3" transform="translate(-439.1 -190.52)"/><path id="Stroke-14" class="cls-3" d="M460.29,219.07c-1.06-.73-2.19.33-2.51,1.66-.55,2.3.13,4.27.9,6.34.57,1.5,1.57,2.31,2.26.3" transform="translate(-439.1 -190.52)"/><path id="Fill-15" class="cls-5" d="M464.44,219.47a4.51,4.51,0,0,1,4.32-1.2" transform="translate(-439.1 -190.52)"/><path id="Stroke-16" class="cls-3" d="M464.44,219.47a4.51,4.51,0,0,1,4.32-1.2" transform="translate(-439.1 -190.52)"/><path id="Fill-17" class="cls-4" d="M466.62,218.76c-.07.25-.21.38-.61,0" transform="translate(-439.1 -190.52)"/><path id="Stroke-18" class="cls-3" d="M466.62,218.76c-.07.25-.21.38-.61,0" transform="translate(-439.1 -190.52)"/><path id="Fill-19" class="cls-4" d="M476.69,217.87c-.16.2-.34.26-.57-.23" transform="translate(-439.1 -190.52)"/><path id="Stroke-20" class="cls-3" d="M476.69,217.87c-.16.2-.34.26-.57-.23" transform="translate(-439.1 -190.52)"/><path id="Fill-21" class="cls-4" d="M472.5,214.61c2.08,5.15,2.32,8.09,1.79,9.65a2.19,2.19,0,0,1-3.81.74" transform="translate(-439.1 -190.52)"/><path id="Stroke-22" class="cls-3" d="M472.5,214.61c2.08,5.15,2.32,8.09,1.79,9.65a2.19,2.19,0,0,1-3.81.74" transform="translate(-439.1 -190.52)"/><path id="Fill-23" class="cls-5" d="M478.3,218.17a4.36,4.36,0,0,0-4.27-.72" transform="translate(-439.1 -190.52)"/><path id="Stroke-24" class="cls-3" d="M478.3,218.17a4.36,4.36,0,0,0-4.27-.72" transform="translate(-439.1 -190.52)"/><path id="Stroke-25" class="cls-3" d="M467.38,226.82a13,13,0,0,0,9.08,1.43" transform="translate(-439.1 -190.52)"/><path id="Stroke-26" class="cls-3" d="M468,228.53c1.12,2.09,7,3.57,7.33,1.33" transform="translate(-439.1 -190.52)"/><path id="Fill-27" class="cls-5" d="M461.6,233.79c-.64-.61-2.08-.18-1.5-.47,1.15-.57,3.28-2.36,5.41-2.62s2.32,2.4-.07,2.91A11.34,11.34,0,0,1,462,234" transform="translate(-439.1 -190.52)"/><path id="Stroke-28" class="cls-3" d="M461.6,233.79c-.64-.61-2.08-.18-1.5-.47,1.15-.57,3.28-2.36,5.41-2.62s2.32,2.4-.07,2.91A11.34,11.34,0,0,1,462,234" transform="translate(-439.1 -190.52)"/><path id="Fill-29" class="cls-5" d="M484.25,238.33c.76-.46,2.08.26,1.57-.14-1-.8-2.72-3-4.75-3.7s-2.76,1.86-.54,2.86a11.3,11.3,0,0,0,3.25,1.13" transform="translate(-439.1 -190.52)"/><path id="Stroke-30" class="cls-3" d="M484.25,238.33c.76-.46,2.08.26,1.57-.14-1-.8-2.72-3-4.75-3.7s-2.76,1.86-.54,2.86a11.3,11.3,0,0,0,3.25,1.13" transform="translate(-439.1 -190.52)"/><path id="Fill-31" class="cls-4" d="M454,241.21c6.11-8.52,26.77-9.17,33.85,2.16" transform="translate(-439.1 -190.52)"/><path id="Stroke-32" class="cls-3" d="M454,241.21c6.11-8.52,26.77-9.17,33.85,2.16" transform="translate(-439.1 -190.52)"/><path id="Fill-33" class="cls-5" d="M485.38,235.21c1.13.25.59,1.42.12,2.14-.91,1.41-2.15,3-3.85,3.41-1.19.27-2.1-.6-1-1.46.46-.35,2.36-2.27,2.75-2.7.58-.65.5-.91,1.27-1.37" transform="translate(-439.1 -190.52)"/><path id="Stroke-34" class="cls-3" d="M485.38,235.21c1.13.25.59,1.42.12,2.14-.91,1.41-2.15,3-3.85,3.41-1.19.27-2.1-.6-1-1.46.46-.35,2.36-2.27,2.75-2.7.58-.65.5-.91,1.27-1.37" transform="translate(-439.1 -190.52)"/><path id="Fill-35" class="cls-5" d="M487.06,237c1.2-.31,1.46.72.43,2.08a13.09,13.09,0,0,1-4.33,3.6c-1.42.74-2.56-.32-1-1.63a26.88,26.88,0,0,0,2-1.85,10.53,10.53,0,0,1,2.13-2.19" transform="translate(-439.1 -190.52)"/><path id="Stroke-36" class="cls-3" d="M487.06,237c1.2-.31,1.46.72.43,2.08a13.09,13.09,0,0,1-4.33,3.6c-1.42.74-2.56-.32-1-1.63a26.88,26.88,0,0,0,2-1.85,10.53,10.53,0,0,1,2.13-2.19" transform="translate(-439.1 -190.52)"/><path id="Fill-37" class="cls-5" d="M489.55,241c1.06.3.37,1.25,0,1.95-.71,1.56-3.81,3.58-4.47,2.59-.9-1.34.26-1.43,1.88-2.89a9.29,9.29,0,0,1,1.91-1.68" transform="translate(-439.1 -190.52)"/><path id="Stroke-38" class="cls-3" d="M489.55,241c1.06.3.37,1.25,0,1.95-.71,1.56-3.81,3.58-4.47,2.59-.9-1.34.26-1.43,1.88-2.89a9.29,9.29,0,0,1,1.91-1.68" transform="translate(-439.1 -190.52)"/><path id="Fill-39" class="cls-5" d="M488.47,238.87c1.13.26.58,1.42.12,2.14-.91,1.41-2.36,3.14-4.06,3.53-1.19.27-1.14-1.3-.89-1.59s1.83-1.64,2.21-2.07a9.64,9.64,0,0,1,1.94-2" transform="translate(-439.1 -190.52)"/><path id="Stroke-40" class="cls-3" d="M488.47,238.87c1.13.26.58,1.42.12,2.14-.91,1.41-2.36,3.14-4.06,3.53-1.19.27-1.14-1.3-.89-1.59s1.83-1.64,2.21-2.07a9.64,9.64,0,0,1,1.94-2" transform="translate(-439.1 -190.52)"/><path id="Fill-41" class="cls-5" d="M461.4,231.66c-1.15-.12-1,1.16-.78,2,.42,1.62,1.09,3.55,2.59,4.45,1,.62,2.18.08,1.36-1.1-.32-.47-1.53-2.89-1.76-3.42-.35-.8-.19-1-.77-1.7" transform="translate(-439.1 -190.52)"/><path id="Stroke-42" class="cls-3" d="M461.4,231.66c-1.15-.12-1,1.16-.78,2,.42,1.62,1.09,3.55,2.59,4.45,1,.62,2.18.08,1.36-1.1-.32-.47-1.53-2.89-1.76-3.42-.35-.8-.19-1-.77-1.7" transform="translate(-439.1 -190.52)"/><path id="Fill-43" class="cls-5" d="M459.24,232.84c-1-.67-1.61.24-1.06,1.85a13.22,13.22,0,0,0,3,4.77c1.12,1.15,2.54.5,1.43-1.25a23.91,23.91,0,0,1-1.31-2.38,11.06,11.06,0,0,0-1.34-2.74" transform="translate(-439.1 -190.52)"/><path id="Stroke-44" class="cls-3" d="M459.24,232.84c-1-.67-1.61.24-1.06,1.85a13.22,13.22,0,0,0,3,4.77c1.12,1.15,2.54.5,1.43-1.25a23.91,23.91,0,0,1-1.31-2.38,11.06,11.06,0,0,0-1.34-2.74" transform="translate(-439.1 -190.52)"/><path id="Fill-45" class="cls-5" d="M457.32,234.17c-1.15-.12-1,1.16-.78,2,.42,1.63,1.25,3.72,2.75,4.62,1,.63,1.49-.87,1.34-1.23-.21-.54-1.22-2.13-1.45-2.66a9.51,9.51,0,0,0-1.22-2.5" transform="translate(-439.1 -190.52)"/><path id="Stroke-46" class="cls-3" d="M457.32,234.17c-1.15-.12-1,1.16-.78,2,.42,1.63,1.25,3.72,2.75,4.62,1,.63,1.49-.87,1.34-1.23-.21-.54-1.22-2.13-1.45-2.66a9.51,9.51,0,0,0-1.22-2.5" transform="translate(-439.1 -190.52)"/><path id="Fill-47" class="cls-5" d="M455.37,235.94c-.91-.05-.6,1-.52,1.68.16,1.55,2.07,4.21,2.84,3.54,1-.89.15-1.31-.74-3a9.22,9.22,0,0,0-1.07-2" transform="translate(-439.1 -190.52)"/><path id="Stroke-48" class="cls-3" d="M455.37,235.94c-.91-.05-.6,1-.52,1.68.16,1.55,2.07,4.21,2.84,3.54,1-.89.15-1.31-.74-3a9.22,9.22,0,0,0-1.07-2" transform="translate(-439.1 -190.52)"/><path id="Stroke-49" class="cls-3" d="M480.26,221.48a73.18,73.18,0,0,1-1.42,8.81c-.44,1.59-.64,1.39-1.59,2.52" transform="translate(-439.1 -190.52)"/><path id="Stroke-50" class="cls-2" d="M472.23,206.93a16.56,16.56,0,0,0-7.37-5.22" transform="translate(-439.1 -190.52)"/><path id="Stroke-51" class="cls-2" d="M474.52,204.5c1.12-1.36,2.6-1.84,4.84-2.35" transform="translate(-439.1 -190.52)"/><path id="Stroke-52" class="cls-2" d="M479.36,207.91a6.72,6.72,0,0,1,3.48-1" transform="translate(-439.1 -190.52)"/><path id="Stroke-53" class="cls-2" d="M462.35,208.83a4.46,4.46,0,0,0-4.8-3.78" transform="translate(-439.1 -190.52)"/></g></g></g></g></svg>