<?xml version="1.0" encoding="utf-8"?>
<!-- Generator: Adobe Illustrator 16.0.0, SVG Export Plug-In . SVG Version: 6.00 Build 0)  -->
<!DOCTYPE svg PUBLIC "-//W3C//DTD SVG 1.1//EN" "http://www.w3.org/Graphics/SVG/1.1/DTD/svg11.dtd">
<svg version="1.1" id="Layer_1" xmlns="http://www.w3.org/2000/svg" xmlns:xlink="http://www.w3.org/1999/xlink" x="0px" y="0px"
	 width="152px" height="152px" viewBox="0 0 152 152" enable-background="new 0 0 152 152" xml:space="preserve">
<path id="Stroke-2" fill="none" stroke="#000000" stroke-width="3" stroke-linecap="round" stroke-linejoin="round" d="
	M37.538,62.128c1.278-2.236,3.21-15.028-7.781-14.884"/>
<path id="Stroke-3" fill="none" stroke="#000000" stroke-width="3" stroke-linecap="round" stroke-linejoin="round" d="
	M23.254,42.211c12.922-11.882,21.19,3.603,21.19,3.603"/>
<path id="Stroke-4" fill="none" stroke="#000000" stroke-width="3" stroke-linecap="round" stroke-linejoin="round" d="
	M28.178,31.49c6.746-18.172,23.592-11.008,34.266,0.84"/>
<path id="Stroke-5" fill="none" stroke="#000000" stroke-width="3" stroke-linecap="round" stroke-linejoin="round" d="
	M46.916,15.019c5.828-4.454,21.869-4.01,27.228,3.98"/>
<path id="Stroke-6" fill="none" stroke="#000000" stroke-width="3" stroke-linecap="round" stroke-linejoin="round" d="
	M77.919,24.131c0,0,22.313-20.956,31.463-4.902"/>
<path id="Stroke-7" fill="none" stroke="#000000" stroke-width="3" stroke-linecap="round" stroke-linejoin="round" d="
	M104.024,26.044c0,0,17.668,2.884,13.536,18.459"/>
<path id="Stroke-8" fill="none" stroke="#000000" stroke-width="3" stroke-linecap="round" stroke-linejoin="round" d="
	M112.052,39.054c-5.122-0.126-9.142,7.981-5.287,18.128"/>
<path id="Stroke-10" fill="none" stroke="#000000" stroke-width="3" stroke-linecap="round" stroke-linejoin="round" d="
	M53.675,62.776c4.063-5.581,10.908-8.342,18.989-3.98"/>
<path id="Stroke-12" fill="none" stroke="#000000" stroke-width="3" stroke-linecap="round" stroke-linejoin="round" d="
	M82.042,56.513c4.819-4.819,11.909-5.38,16.997-1.009"/>
<path id="Fill-13" fill="none" d="M46.037,67.183c-2.923-2.027-6.046,0.913-6.938,4.592c-1.544,6.403,0.335,11.86,2.502,17.611
	c1.565,4.168,4.358,6.412,6.271,0.818"/>
<path id="Stroke-14" fill="none" stroke="#000000" stroke-width="3" stroke-linecap="round" stroke-linejoin="round" d="
	M46.037,67.183c-2.923-2.027-6.046,0.913-6.938,4.592c-1.544,6.403,0.335,11.86,2.502,17.611c1.565,4.168,4.358,6.412,6.271,0.818"
	/>
<path id="Stroke-16" fill="none" stroke="#000000" stroke-width="3" stroke-linecap="round" stroke-linejoin="round" d="
	M58.747,67.456c2.47-2.475,5.707-4.275,11.986-3.34"/>
<path id="Fill-21" fill="none" stroke="#000000" stroke-width="3" stroke-miterlimit="10" d="M79.938,54.821
	c5.759,14.283,6.437,22.435,4.976,26.77c-2.089,6.203-8.508,4.628-10.579,2.054"/>
<path id="Stroke-22" fill="none" stroke="#000000" stroke-width="3" stroke-linecap="round" stroke-linejoin="round" d="
	M79.938,54.821c5.759,14.283,6.437,22.435,4.976,26.77c-2.089,6.203-8.508,4.628-10.579,2.054"/>
<path id="Stroke-24" fill="none" stroke="#000000" stroke-width="3" stroke-linecap="round" stroke-linejoin="round" d="
	M98.379,62.776c0,0-4.088-4.171-11.866-1.992"/>
<path id="Stroke-25" fill="none" stroke="#000000" stroke-width="3" stroke-linecap="round" stroke-linejoin="round" d="
	M65.723,88.683c6.768,3.948,17.138,6.141,25.192,3.957"/>
<path id="Stroke-26" fill="none" stroke="#000000" stroke-width="3" stroke-linecap="round" stroke-linejoin="round" d="
	M67.35,93.431c3.088,5.794,19.459,9.918,20.338,3.688"/>
<path id="Stroke-49" fill="none" stroke="#000000" stroke-width="3" stroke-linecap="round" stroke-linejoin="round" d="
	M101.467,73.88c-0.478,5.558-2.506,19.167-3.94,24.431c-1.209,4.401-1.767,3.861-4.411,7.011"/>
<path id="Stroke-50" fill="none" stroke="#000000" stroke-width="3" stroke-linecap="round" stroke-linejoin="round" d="
	M79.18,33.504c-5.002-6.659-11.786-10.943-20.433-14.505"/>
<path id="Stroke-51" fill="none" stroke="#000000" stroke-width="3" stroke-linecap="round" stroke-linejoin="round" d="
	M85.548,26.763c3.088-3.78,7.22-5.124,13.43-6.525"/>
<path id="Stroke-52" fill="none" stroke="#000000" stroke-width="3" stroke-linecap="round" stroke-linejoin="round" d="
	M98.978,36.209c2.968-1.645,6.238-2.818,9.666-2.697"/>
<path id="Stroke-53" fill="none" stroke="#000000" stroke-width="3" stroke-linecap="round" stroke-linejoin="round" d="
	M51.77,38.775c-0.73-6.376-6.907-11.039-13.31-10.495"/>
<path fill-rule="evenodd" clip-rule="evenodd" d="M126.615,128.671c0.165-0.392,0.34-0.766,0.436-1.148
	c0.452-1.671-0.409-3-2.253-3.515c-0.818-0.21-0.818-0.21-0.601-0.887c0.026-0.097,0.07-0.192,0.079-0.288
	c0.104-0.895,0.138-1.766-0.696-2.487c-1.019-0.871-2.802-1.113-4.298-0.557c-0.26,0.095-0.478,0.148-0.73,0
	c-0.279-0.156-0.262-0.347-0.183-0.574c0.095-0.409,0.112-0.817,0.087-1.235c-0.141-1.635-1.967-2.445-3.176-2.409
	c-0.644,0.017-1.253,0.156-1.904,0c-0.332-0.079-0.67,0.096-0.966,0.243c-0.582,0.296-1.088,0.635-1.566,1.035
	c-0.486,0.408-0.486,0.4-1.035,0.052c-1.791-1.191-3.724-2.218-5.906-2.861c-2.287-0.669-4.419-0.635-6.221,0.931
	c-0.233,0.217-0.504,0.166-0.782,0.087c-4.758-1.296-9.629-2.227-14.598-2.739c-2.923-0.314-5.854-0.548-8.802-0.548
	c-3.175,0-6.342-0.079-9.534,0.233c0.157-0.287,0.383-0.486,0.54-0.714c0.914-1.32,1.026-2.695,0.139-4.044
	c-0.782-1.191-2.053-1.826-3.723-1.923h-1.836c-0.608,0.104-1.235,0.087-1.853,0.218c-2.157,0.427-4.14,1.175-6.063,2.036
	c-0.957,0.435-1.835,0.565-2.74-0.018c-0.139-0.097-0.331-0.131-0.504-0.156c-1.566-0.166-3.297,0.399-3.863,1.859
	c-0.13,0.349-0.26,0.681-0.269,1.027c-0.018,0.192-0.096,0.349-0.357,0.409c-0.243,0.062-0.452,0.079-0.661-0.096
	c-0.575-0.547-1.357-0.782-2.184-0.931c-1.444-0.261-2.706,0.271-3.375,1.357c-0.335,0.538-0.44,1.131-0.496,1.722
	c-0.022,0.332-0.157,0.428-0.562,0.393c-1.839-0.131-3.305,0.739-3.709,2.209c-0.165,0.565-0.144,1.157-0.126,1.73
	c0.009,0.47-0.113,0.557-0.623,0.339c-0.487-0.216-0.979-0.312-1.531-0.242c-1.47,0.183-2.436,1.07-2.497,2.332
	c-0.056,1.026,0.157,2.051,0.374,3.062c0.092,0.442-0.035,0.773-0.461,1.051c-1.27,0.819-2.305,1.829-3.318,2.847
	c-0.921,0.913-2.044,1.773-2.17,3.078v1.488c0.23,0.408,0.356,0.869,0.644,1.261c1.739,2.358,5.902,2.55,7.964,0.375
	c0.748-0.811,1.522-1.61,2.375-2.323c0.208-0.183,0.339-0.218,0.578-0.035c0.479,0.349,1.018,0.661,1.631,0.87
	c1.139,0.366,2.17,0.271,3.088-0.452c0.548-0.427,1.005-0.896,1.322-1.47c0.587,0.392,1.161,0.73,1.796,0.992
	c1.688,0.712,3.349,0.373,4.428-0.915c0.383-0.443,0.687-0.947,0.8-1.479c0.087-0.442,0.244-0.339,0.557-0.157
	c0.626,0.383,1.313,0.654,2.07,0.802c2.54,0.479,4.445-0.966,4.028-3.053c-0.061-0.34-0.166-0.671-0.271-1.063
	c0.853,0.251,1.671,0.409,2.524,0.356c1.687-0.069,2.896-0.931,3.044-2.191c0.07-0.574-0.122-1.113-0.435-1.636
	c-0.139-0.2-0.105-0.313,0.208-0.349c3.636-0.504,7.272-0.818,10.961-0.895c5.097-0.086,10.178,0.225,15.205,0.974
	c5.655,0.87,11.074,2.262,16.241,4.34c0.114,0.044,0.313,0.053,0.322,0.096c-0.297,0.28-0.504,0.505-0.748,0.714
	c-0.583,0.531-1.008,1.131-1.044,1.861c-0.078,1.219,1.07,2.254,2.844,2.583c0.574,0.114,1.167,0.105,1.827,0.114
	c-0.322,0.383-0.601,0.704-0.782,1.069c-0.957,1.792,0.061,3.358,2.41,3.732c1.069,0.165,2.061-0.044,3.096-0.306
	c0,0.453-0.043,0.862,0,1.271c0.174,1.584,1.374,2.768,3.28,2.785c0.251,0,0.321,0.076,0.399,0.268
	c0.488,1.228,1.262,2.255,2.915,2.629h1.583c1.626-0.088,3.019-0.695,4.385-1.349c1.321-0.644,2.557-1.385,3.723-2.228
	c2.426-1.74,3.967-3.888,4.836-6.401v-1.192C129.521,129.323,128.139,128.497,126.615,128.671z M37.294,128.775
	c-0.538,0.748-0.874,0.817-1.718,0.287c-1.727-1.097-2.84-2.566-3.849-4.115c-1.014-1.548-1.335-3.211-1.496-4.959
	c0.091-0.208-0.196-0.6,0.24-0.712c0.456-0.096,0.9-0.079,1.243,0.347c0.513,0.654,0.979,1.34,1.349,2.045
	c0.926,1.845,2.118,3.55,3.462,5.185c0.313,0.373,0.6,0.758,0.805,1.166C37.456,128.271,37.481,128.522,37.294,128.775z
	 M43.784,128.409c-0.374,0.332-0.774,0.306-1.201,0.113c-1.252-0.573-2.261-1.365-3.092-2.287c-2.439-2.688-3.775-5.759-4.558-9.004
	c-0.083-0.331-0.057-0.705-0.039-1.043c0.026-0.34,0.074-0.567,0.213-0.723c0.152-0.305,0.479-0.54,0.992-0.54
	c0.256,0,0.46,0.069,0.626,0.157c0.37,0.044,0.573,0.426,0.826,0.704c0.57,0.601,1.014,1.288,1.326,1.992
	c1.166,2.637,2.792,5.063,4.558,7.446c0.244,0.332,0.47,0.687,0.696,1.035C44.601,126.974,44.445,127.809,43.784,128.409z
	 M49.795,126.575c-0.644-0.148-1.183-0.427-1.653-0.819c-2.148-1.739-3.976-3.661-5.506-5.801c-0.6-0.836-0.914-1.793-1.392-2.688
	c-0.313-0.592-0.635-1.209-1.07-1.775c-0.622-0.8-0.774-1.695-0.866-2.452c0-0.2,0-0.245,0-0.296
	c0.022-0.608,0.148-0.939,0.453-1.019c0.247-0.27,0.629-0.442,1.161-0.442c0.443,0,0.792,0.129,1.035,0.33
	c0.087,0.043,0.174,0.104,0.261,0.157c0.208,0.155,0.356,0.356,0.452,0.555c0.07,0.07,0.13,0.141,0.209,0.209
	c0.992,1.027,1.653,2.201,2.192,3.41c1.271,2.793,3.019,5.377,4.933,7.899c0.435,0.557,0.826,1.131,1,1.791
	C51.212,126.436,50.778,126.773,49.795,126.575z M56.18,122.556c-0.339,0.392-0.94,0.277-1.427,0.208
	c-1.018-0.156-1.818-0.635-2.566-1.182c-1.948-1.375-3.114-3.167-4.019-5.081c-0.748-1.575-1.356-3.157-1.722-4.811
	c-0.052-0.279-0.079-0.565-0.104-0.844c0.017-0.244,0.017-0.496,0.087-0.748c0.052-0.235,0.165-0.427,0.365-0.522
	c0.184-0.2,0.47-0.347,0.871-0.347c0.27,0,0.487,0.068,0.652,0.164c0.061,0,0.131,0.018,0.183,0.087
	c0.417,0.488,0.983,0.914,1.165,1.497c0.818,2.53,2.454,4.758,3.863,7.072c0.713,1.156,1.479,2.305,2.349,3.418
	C56.119,121.79,56.493,122.19,56.18,122.556z M61.112,111.265c-0.992,0.564-2.158,0.738-3.306,0.913
	c-1.357,0.226-2.714,0.399-4.071,0.616c-0.513,0.079-0.835,0-0.992-0.452c-0.313-0.817-0.652-1.626-1.018-2.426
	c-0.095-0.208,0.061-0.244,0.183-0.296c2.296-1.045,4.654-1.939,7.272-2.288c0.661-0.087,1.34-0.096,1.992,0.078
	c0.922,0.271,1.47,0.913,1.479,1.913C62.626,110.063,62.034,110.733,61.112,111.265z M100.31,116.275
	c-0.062-0.018-0.122-0.062-0.252-0.122c0.729-0.532,1.531-0.532,2.297-0.33c2.331,0.635,4.437,1.599,6.228,3.009
	c0.157,0.131,0.365,0.27,0.062,0.427c-0.227,0.113-0.305,0.505-0.723,0.243C105.617,118.075,102.997,117.127,100.31,116.275z
	 M103.563,128.393c-0.443,0-0.862-0.026-1.253-0.175c-0.584-0.235-0.651-0.487-0.278-0.904c0.244-0.296,0.601-0.486,0.922-0.722
	c2.913-2.113,5.715-4.331,8.299-6.733c0.409-0.366,0.73-0.792,1.061-1.209c0.488-0.574,1.211-0.913,1.897-1.305
	c0.052-0.052,0.096-0.052,0.139-0.034c0.123-0.054,0.261-0.097,0.427-0.097c0.521,0,0.852,0.313,1,0.688
	c0.184,0.191,0.191,0.462,0.07,0.878c-0.122,0.366-0.279,0.739-0.487,1.061c-1.801,2.586-3.889,4.977-6.777,6.84
	C106.956,127.73,104.973,128.393,103.563,128.393z M107.373,133.149c-0.286,0.079-0.591,0.104-0.896,0.104
	c-1.131,0-1.427-0.434-0.879-1.227c0.33-0.477,0.81-0.869,1.331-1.227c2.965-2.016,5.794-4.156,8.211-6.645
	c1.045-1.063,2.271-1.983,3.664-2.749c0.069-0.044,0.131-0.148,0.234-0.078c0.044-0.009,0.07-0.017,0.095-0.026
	c0.209-0.131,0.47-0.209,0.801-0.209c0.166,0,0.305,0.026,0.435,0.053c0.035,0.009,0.061,0.009,0.096,0.018
	c0.044,0,0.095,0.008,0.148,0.018c0.008,0,0.018-0.01,0.025-0.01c0.436,0,0.739,0.209,0.914,0.496
	c0.252,0.13,0.305,0.418,0.157,0.871c-0.018,0.06-0.036,0.094-0.054,0.146c0,0.009-0.017,0.018-0.025,0.026
	c-0.297,0.888-0.818,1.696-1.696,2.322c-0.818,0.593-1.619,1.227-2.278,1.949c-2.045,2.209-4.793,3.731-7.647,5.132
	C109.157,132.542,108.339,132.959,107.373,133.149z M113.054,136.83c-1.349,0.313-1.818,0.123-1.896-1.227
	c-0.025-0.452,0.157-0.826,0.584-1.139c1.286-0.914,2.513-1.888,3.81-2.792c1.757-1.21,3.132-2.688,4.637-4.071
	c0.757-0.705,1.592-1.332,2.574-1.837c0.14-0.069,0.235-0.104,0.365-0.077c0.114-0.061,0.243-0.097,0.418-0.097
	c0.174,0,0.33,0.043,0.461,0.113c0.271,0.121,0.443,0.331,0.513,0.583c0.104,0.174,0.113,0.366,0.044,0.704
	c-0.087,0.444-0.279,0.87-0.547,1.253c-1.993,2.818-4.412,5.368-7.7,7.272C115.315,136.108,114.228,136.544,113.054,136.83z
	 M127.225,131.377c0.026,0.234-0.069,0.443-0.244,0.6c-0.017,0.121-0.078,0.242-0.165,0.33c-0.166,0.357-0.296,0.679-0.564,0.975
	c-0.019,0.026-0.035,0.034-0.053,0.052c-1.209,1.854-2.939,3.393-5.167,4.603c-1.262,0.687-2.567,1.313-4.071,1.618
	c-0.226,0.052-0.471,0.078-0.583,0.087c-0.67,0.009-1.461-0.73-1.402-1.175c0.02-0.139,0.132-0.157,0.228-0.2
	c3.811-1.409,6.508-3.836,8.926-6.523c0.451-0.497,1.035-0.854,1.705-1.088c0.104-0.026,0.199-0.034,0.313-0.026
	c0.035-0.008,0.07-0.025,0.105-0.025c0.155,0,0.286,0.034,0.382,0.104c0.227,0.034,0.384,0.155,0.471,0.312
	c0.009,0,0.009,0.01,0.009,0.01C127.295,131.097,127.286,131.245,127.225,131.377z"/>
</svg>
