<?xml version="1.0" encoding="utf-8"?>
<!-- Generator: Adobe Illustrator 16.0.0, SVG Export Plug-In . SVG Version: 6.00 Build 0)  -->
<!DOCTYPE svg PUBLIC "-//W3C//DTD SVG 1.1//EN" "http://www.w3.org/Graphics/SVG/1.1/DTD/svg11.dtd">
<svg version="1.1" id="Layer_1" xmlns="http://www.w3.org/2000/svg" xmlns:xlink="http://www.w3.org/1999/xlink" x="0px" y="0px"
	 width="192px" height="192px" viewBox="0 0 192 192" enable-background="new 0 0 192 192" xml:space="preserve">
<path id="Stroke-2" fill="none" stroke="#000000" stroke-width="4.5" stroke-linecap="round" stroke-linejoin="round" d="
	M46.852,77.76c1.711-2.993,4.296-20.115-10.416-19.922"/>
<path id="Stroke-3" fill="none" stroke="#000000" stroke-width="4.5" stroke-linecap="round" stroke-linejoin="round" d="
	M27.732,51.102c17.297-15.905,28.364,4.821,28.364,4.821"/>
<path id="Stroke-4" fill="none" stroke="#000000" stroke-width="4.5" stroke-linecap="round" stroke-linejoin="round" d="
	M34.323,36.751c9.029-24.324,31.578-14.735,45.864,1.124"/>
<path id="Stroke-5" fill="none" stroke="#000000" stroke-width="4.5" stroke-linecap="round" stroke-linejoin="round" d="
	M59.404,14.704c7.801-5.961,29.272-5.368,36.445,5.327"/>
<path id="Stroke-6" fill="none" stroke="#000000" stroke-width="4.5" stroke-linecap="round" stroke-linejoin="round" d="
	M100.901,26.9c0,0,29.866-28.05,42.114-6.561"/>
<path id="Stroke-7" fill="none" stroke="#000000" stroke-width="4.5" stroke-linecap="round" stroke-linejoin="round" d="
	M135.845,29.462c0,0,23.646,3.86,18.118,24.708"/>
<path id="Stroke-8" fill="none" stroke="#000000" stroke-width="4.5" stroke-linecap="round" stroke-linejoin="round" d="
	M146.59,46.875c-6.857-0.168-12.237,10.683-7.079,24.265"/>
<path id="Stroke-10" fill="none" stroke="#000000" stroke-width="4.5" stroke-linecap="round" stroke-linejoin="round" d="
	M68.451,78.627c5.438-7.469,14.601-11.167,25.418-5.327"/>
<path id="Stroke-12" fill="none" stroke="#000000" stroke-width="4.5" stroke-linecap="round" stroke-linejoin="round" d="
	M106.42,70.244c6.451-6.45,15.941-7.202,22.752-1.35"/>
<path id="Fill-13" fill="none" d="M58.228,84.525c-3.912-2.713-8.093,1.223-9.286,6.148c-2.067,8.569,0.448,15.875,3.348,23.572
	c2.096,5.577,5.833,8.581,8.395,1.095"/>
<path id="Stroke-14" fill="none" stroke="#000000" stroke-width="4.5" stroke-linecap="round" stroke-linejoin="round" d="
	M58.228,84.525c-3.912-2.713-8.093,1.223-9.286,6.148c-2.067,8.569,0.448,15.875,3.348,23.572c2.096,5.577,5.833,8.581,8.395,1.095"
	/>
<path id="Stroke-16" fill="none" stroke="#000000" stroke-width="4.5" stroke-linecap="round" stroke-linejoin="round" d="
	M75.239,84.891c3.307-3.313,7.639-5.723,16.045-4.471"/>
<path id="Fill-21" fill="none" stroke="#000000" stroke-width="4.5" stroke-miterlimit="10" d="M103.604,67.979
	c7.708,19.119,8.616,30.029,6.659,35.833c-2.794,8.302-11.388,6.193-14.159,2.748"/>
<path id="Stroke-22" fill="none" stroke="#000000" stroke-width="4.5" stroke-linecap="round" stroke-linejoin="round" d="
	M103.604,67.979c7.708,19.119,8.616,30.029,6.659,35.833c-2.794,8.302-11.388,6.193-14.159,2.748"/>
<path id="Stroke-24" fill="none" stroke="#000000" stroke-width="4.5" stroke-linecap="round" stroke-linejoin="round" d="
	M128.286,78.627c0,0-5.471-5.583-15.881-2.667"/>
<path id="Stroke-25" fill="none" stroke="#000000" stroke-width="4.5" stroke-linecap="round" stroke-linejoin="round" d="
	M84.577,113.302c9.059,5.286,22.938,8.221,33.72,5.298"/>
<path id="Stroke-26" fill="none" stroke="#000000" stroke-width="4.5" stroke-linecap="round" stroke-linejoin="round" d="
	M86.754,119.659c4.133,7.755,26.047,13.274,27.223,4.938"/>
<path id="Stroke-49" fill="none" stroke="#000000" stroke-width="4.5" stroke-linecap="round" stroke-linejoin="round" d="
	M132.42,93.491c-0.64,7.44-3.353,25.656-5.274,32.701c-1.617,5.892-2.364,5.169-5.902,9.385"/>
<path id="Stroke-50" fill="none" stroke="#000000" stroke-width="4.5" stroke-linecap="round" stroke-linejoin="round" d="
	M102.591,39.446c-6.697-8.913-15.778-14.647-27.352-19.416"/>
<path id="Stroke-51" fill="none" stroke="#000000" stroke-width="4.5" stroke-linecap="round" stroke-linejoin="round" d="
	M111.112,30.423c4.134-5.059,9.665-6.858,17.978-8.733"/>
<path id="Stroke-52" fill="none" stroke="#000000" stroke-width="4.5" stroke-linecap="round" stroke-linejoin="round" d="
	M129.09,43.068c3.973-2.201,8.35-3.772,12.938-3.61"/>
<path id="Stroke-53" fill="none" stroke="#000000" stroke-width="4.5" stroke-linecap="round" stroke-linejoin="round" d="
	M65.901,46.502c-0.978-8.535-9.245-14.776-17.815-14.048"/>
<path fill-rule="evenodd" clip-rule="evenodd" d="M166.083,166.828c0.22-0.524,0.454-1.024,0.582-1.538
	c0.606-2.234-0.548-4.016-3.016-4.704c-1.096-0.279-1.096-0.279-0.805-1.188c0.036-0.127,0.094-0.256,0.105-0.384
	c0.141-1.198,0.188-2.364-0.931-3.33c-1.362-1.164-3.749-1.49-5.753-0.745c-0.35,0.128-0.64,0.198-0.978,0
	c-0.374-0.209-0.35-0.465-0.244-0.769c0.128-0.547,0.15-1.095,0.116-1.653c-0.188-2.189-2.633-3.271-4.25-3.225
	c-0.863,0.022-1.678,0.209-2.55,0c-0.442-0.105-0.896,0.127-1.293,0.325c-0.78,0.396-1.456,0.851-2.096,1.386
	c-0.653,0.547-0.653,0.536-1.387,0.069c-2.397-1.595-4.983-2.968-7.904-3.83c-3.063-0.896-5.917-0.851-8.325,1.245
	c-0.315,0.291-0.676,0.222-1.05,0.117c-6.368-1.735-12.888-2.98-19.538-3.668c-3.912-0.419-7.835-0.733-11.782-0.733
	c-4.25,0-8.488-0.104-12.761,0.314c0.209-0.385,0.512-0.652,0.721-0.955c1.223-1.77,1.375-3.609,0.187-5.414
	c-1.048-1.595-2.748-2.445-4.983-2.573h-2.457c-0.815,0.14-1.653,0.116-2.48,0.292c-2.888,0.57-5.542,1.571-8.116,2.724
	c-1.28,0.582-2.457,0.758-3.667-0.023c-0.187-0.128-0.442-0.174-0.676-0.209c-2.096-0.222-4.413,0.535-5.169,2.491
	c-0.175,0.466-0.349,0.909-0.361,1.374c-0.023,0.256-0.128,0.467-0.478,0.547c-0.326,0.082-0.605,0.105-0.885-0.127
	c-0.768-0.734-1.816-1.049-2.922-1.246c-1.933-0.35-3.621,0.361-4.518,1.816c-0.448,0.721-0.588,1.513-0.664,2.305
	c-0.029,0.442-0.209,0.571-0.751,0.524c-2.462-0.175-4.424,0.99-4.966,2.957c-0.221,0.757-0.192,1.549-0.168,2.317
	c0.012,0.629-0.151,0.745-0.833,0.454c-0.652-0.291-1.311-0.42-2.049-0.325c-1.968,0.243-3.26,1.432-3.342,3.12
	c-0.076,1.373,0.209,2.748,0.5,4.099c0.122,0.593-0.046,1.036-0.617,1.408c-1.7,1.095-3.085,2.445-4.442,3.808
	c-1.234,1.223-2.736,2.376-2.905,4.122v1.991c0.309,0.547,0.478,1.164,0.862,1.688c2.329,3.156,7.9,3.412,10.66,0.501
	c1-1.082,2.038-2.153,3.178-3.108c0.28-0.245,0.454-0.291,0.774-0.047c0.64,0.466,1.362,0.886,2.183,1.165
	c1.525,0.488,2.905,0.36,4.134-0.606c0.733-0.57,1.345-1.198,1.77-1.967c0.786,0.523,1.555,0.978,2.405,1.327
	c2.258,0.954,4.482,0.5,5.926-1.224c0.512-0.594,0.92-1.268,1.071-1.979c0.116-0.593,0.326-0.454,0.745-0.209
	c0.839,0.513,1.759,0.873,2.771,1.071c3.4,0.641,5.95-1.293,5.391-4.087c-0.082-0.453-0.221-0.896-0.361-1.421
	c1.141,0.338,2.235,0.548,3.377,0.478c2.258-0.093,3.877-1.246,4.075-2.934c0.093-0.769-0.163-1.491-0.583-2.189
	c-0.187-0.268-0.14-0.419,0.279-0.466c4.867-0.675,9.734-1.095,14.671-1.198c6.823-0.117,13.623,0.302,20.354,1.304
	c7.568,1.164,14.822,3.027,21.738,5.81c0.152,0.059,0.419,0.069,0.43,0.128c-0.396,0.373-0.673,0.676-1,0.955
	c-0.78,0.71-1.351,1.515-1.397,2.491c-0.105,1.631,1.432,3.017,3.807,3.459c0.77,0.15,1.562,0.14,2.447,0.15
	c-0.432,0.514-0.806,0.944-1.049,1.433c-1.282,2.399,0.08,4.495,3.226,4.995c1.431,0.221,2.76-0.059,4.145-0.407
	c0,0.604-0.059,1.153,0,1.7c0.232,2.119,1.841,3.702,4.391,3.727c0.338,0,0.43,0.104,0.534,0.359
	c0.653,1.642,1.689,3.017,3.901,3.518h2.118c2.179-0.117,4.042-0.932,5.869-1.805c1.77-0.862,3.422-1.853,4.983-2.98
	c3.248-2.33,5.311-5.205,6.474-8.57v-1.595C169.971,167.701,168.121,166.596,166.083,166.828z M46.525,166.968
	c-0.721,1.001-1.17,1.094-2.299,0.384c-2.311-1.468-3.801-3.435-5.152-5.507c-1.357-2.072-1.787-4.297-2.002-6.638
	c0.123-0.278-0.262-0.803,0.32-0.954c0.611-0.129,1.205-0.105,1.665,0.465c0.688,0.874,1.311,1.793,1.805,2.737
	c1.24,2.468,2.835,4.751,4.635,6.939c0.418,0.5,0.803,1.013,1.077,1.561C46.741,166.292,46.776,166.63,46.525,166.968z
	 M55.212,166.478c-0.501,0.443-1.036,0.408-1.607,0.152c-1.677-0.769-3.027-1.828-4.139-3.062
	c-3.266-3.599-5.054-7.709-6.102-12.052c-0.11-0.443-0.076-0.943-0.052-1.397c0.035-0.454,0.099-0.757,0.285-0.966
	c0.203-0.408,0.64-0.723,1.327-0.723c0.344,0,0.617,0.093,0.838,0.21c0.495,0.059,0.769,0.57,1.106,0.943
	c0.763,0.803,1.357,1.723,1.775,2.666c1.561,3.528,3.738,6.776,6.102,9.967c0.326,0.443,0.628,0.92,0.932,1.386
	C56.306,164.558,56.097,165.675,55.212,166.478z M63.257,164.022c-0.861-0.198-1.583-0.571-2.212-1.096
	c-2.876-2.328-5.321-4.901-7.371-7.766c-0.803-1.118-1.223-2.399-1.863-3.598c-0.419-0.792-0.85-1.618-1.432-2.376
	c-0.833-1.071-1.036-2.271-1.159-3.283c0-0.268,0-0.326,0-0.396c0.029-0.814,0.198-1.257,0.605-1.361
	c0.332-0.361,0.844-0.594,1.554-0.594c0.594,0,1.06,0.174,1.386,0.442c0.117,0.059,0.233,0.139,0.35,0.209
	c0.279,0.209,0.478,0.478,0.605,0.745c0.093,0.093,0.174,0.187,0.279,0.279c1.328,1.375,2.213,2.946,2.935,4.564
	c1.7,3.737,4.04,7.195,6.602,10.573c0.582,0.745,1.106,1.513,1.339,2.397C65.155,163.835,64.573,164.289,63.257,164.022z
	 M71.804,158.643c-0.454,0.523-1.258,0.372-1.91,0.279c-1.363-0.21-2.434-0.85-3.435-1.583c-2.608-1.84-4.168-4.239-5.379-6.8
	c-1.001-2.108-1.816-4.228-2.305-6.439c-0.07-0.373-0.105-0.758-0.14-1.13c0.023-0.325,0.023-0.663,0.116-1.001
	c0.07-0.314,0.222-0.57,0.489-0.699c0.245-0.268,0.629-0.465,1.165-0.465c0.36,0,0.652,0.093,0.873,0.221
	c0.082,0,0.175,0.023,0.245,0.117c0.559,0.651,1.315,1.222,1.56,2.003c1.094,3.388,3.284,6.368,5.17,9.466
	c0.955,1.548,1.979,3.086,3.144,4.575C71.723,157.618,72.223,158.152,71.804,158.643z M78.406,143.528
	c-1.328,0.758-2.888,0.99-4.425,1.223c-1.816,0.304-3.632,0.536-5.449,0.827c-0.687,0.104-1.117,0-1.327-0.605
	c-0.419-1.095-0.874-2.178-1.362-3.249c-0.128-0.278,0.081-0.325,0.244-0.396c3.074-1.397,6.229-2.596,9.734-3.063
	c0.885-0.116,1.793-0.128,2.667,0.105c1.234,0.361,1.967,1.222,1.979,2.561C80.432,141.922,79.64,142.818,78.406,143.528z
	 M130.872,150.235c-0.083-0.023-0.163-0.081-0.338-0.163c0.978-0.71,2.049-0.71,3.073-0.441c3.121,0.85,5.939,2.142,8.337,4.028
	c0.21,0.175,0.49,0.36,0.083,0.57c-0.303,0.151-0.407,0.676-0.967,0.325C137.974,152.646,134.469,151.377,130.872,150.235z
	 M135.228,166.456c-0.596,0-1.154-0.036-1.678-0.234c-0.781-0.314-0.872-0.651-0.371-1.21c0.324-0.396,0.803-0.652,1.232-0.968
	c3.9-2.828,7.649-5.797,11.109-9.012c0.546-0.488,0.978-1.059,1.421-1.618c0.65-0.769,1.617-1.223,2.536-1.747
	c0.071-0.069,0.13-0.069,0.188-0.046c0.163-0.07,0.349-0.128,0.57-0.128c0.697,0,1.141,0.419,1.337,0.92
	c0.246,0.256,0.258,0.617,0.095,1.176c-0.164,0.489-0.374,0.989-0.651,1.42c-2.411,3.459-5.205,6.661-9.072,9.153
	C139.768,165.57,137.113,166.456,135.228,166.456z M140.327,172.823c-0.385,0.105-0.792,0.141-1.199,0.141
	c-1.514,0-1.91-0.582-1.177-1.643c0.443-0.64,1.083-1.164,1.781-1.642c3.97-2.7,7.755-5.564,10.991-8.896
	c1.397-1.42,3.04-2.653,4.903-3.68c0.094-0.058,0.174-0.197,0.313-0.104c0.061-0.013,0.094-0.023,0.13-0.035
	c0.279-0.175,0.629-0.279,1.071-0.279c0.222,0,0.407,0.035,0.582,0.069c0.047,0.013,0.08,0.013,0.127,0.023
	c0.059,0,0.128,0.012,0.199,0.023c0.012,0,0.022-0.012,0.033-0.012c0.584,0,0.991,0.279,1.224,0.664
	c0.338,0.174,0.407,0.559,0.211,1.164c-0.025,0.082-0.047,0.128-0.072,0.198c0,0.011-0.022,0.023-0.033,0.034
	c-0.396,1.188-1.096,2.271-2.271,3.109c-1.096,0.792-2.167,1.642-3.051,2.608c-2.735,2.957-6.415,4.994-10.235,6.87
	C142.714,172.01,141.62,172.567,140.327,172.823z M147.93,177.749c-1.805,0.419-2.434,0.163-2.539-1.642
	c-0.033-0.605,0.211-1.106,0.781-1.524c1.723-1.224,3.364-2.527,5.1-3.737c2.354-1.62,4.191-3.599,6.207-5.45
	c1.014-0.943,2.13-1.781,3.444-2.457c0.188-0.093,0.315-0.14,0.49-0.104c0.152-0.081,0.326-0.128,0.56-0.128
	c0.232,0,0.442,0.058,0.617,0.151c0.36,0.162,0.593,0.442,0.687,0.78c0.139,0.232,0.152,0.488,0.058,0.942
	c-0.116,0.594-0.373,1.164-0.733,1.678c-2.666,3.772-5.902,7.184-10.305,9.733C150.958,176.783,149.502,177.365,147.93,177.749z
	 M166.897,170.449c0.036,0.314-0.094,0.594-0.326,0.803c-0.022,0.164-0.105,0.326-0.222,0.443c-0.222,0.477-0.396,0.908-0.756,1.304
	c-0.024,0.035-0.047,0.046-0.069,0.069c-1.619,2.48-3.937,4.541-6.916,6.16c-1.689,0.92-3.436,1.758-5.451,2.165
	c-0.302,0.07-0.629,0.105-0.778,0.116c-0.897,0.013-1.957-0.977-1.877-1.571c0.024-0.187,0.177-0.21,0.305-0.268
	c5.1-1.886,8.71-5.135,11.946-8.732c0.604-0.665,1.385-1.142,2.281-1.456c0.142-0.035,0.269-0.046,0.419-0.035
	c0.047-0.011,0.094-0.034,0.141-0.034c0.21,0,0.385,0.047,0.512,0.14c0.303,0.047,0.513,0.209,0.629,0.419
	c0.011,0,0.011,0.012,0.011,0.012C166.991,170.076,166.979,170.273,166.897,170.449z"/>
</svg>
