<?xml version="1.0" encoding="utf-8"?>
<!-- Generator: Adobe Illustrator 16.0.0, SVG Export Plug-In . SVG Version: 6.00 Build 0)  -->
<!DOCTYPE svg PUBLIC "-//W3C//DTD SVG 1.1//EN" "http://www.w3.org/Graphics/SVG/1.1/DTD/svg11.dtd">
<svg version="1.1" id="Layer_1" xmlns="http://www.w3.org/2000/svg" xmlns:xlink="http://www.w3.org/1999/xlink" x="0px" y="0px"
	 width="32px" height="32px" viewBox="0 0 32 32" enable-background="new 0 0 32 32" xml:space="preserve">
<path id="Stroke-2" fill="none" stroke="#000000" stroke-width="0.5" stroke-linecap="round" stroke-linejoin="round" d="
	M8.412,13.44c0.267-0.467,0.669-3.137-1.624-3.106"/>
<path id="Stroke-3" fill="none" stroke="#000000" stroke-width="0.5" stroke-linecap="round" stroke-linejoin="round" d="
	M5.43,9.284c2.697-2.48,4.424,0.751,4.424,0.751"/>
<path id="Stroke-4" fill="none" stroke="#000000" stroke-width="0.5" stroke-linecap="round" stroke-linejoin="round" d="
	M6.458,7.046c1.408-3.793,4.924-2.299,7.151,0.175"/>
<path id="Stroke-5" fill="none" stroke="#000000" stroke-width="0.5" stroke-linecap="round" stroke-linejoin="round" d="
	M10.369,3.608c1.216-0.93,4.563-0.837,5.681,0.831"/>
<path id="Stroke-6" fill="none" stroke="#000000" stroke-width="0.5" stroke-linecap="round" stroke-linejoin="round" d="
	M16.838,5.509c0,0,4.658-4.373,6.568-1.023"/>
<path id="Stroke-7" fill="none" stroke="#000000" stroke-width="0.5" stroke-linecap="round" stroke-linejoin="round" d="
	M22.287,5.909c0,0,3.688,0.603,2.825,3.852"/>
<path id="Stroke-8" fill="none" stroke="#000000" stroke-width="0.5" stroke-linecap="round" stroke-linejoin="round" d="
	M23.963,8.625c-1.069-0.027-1.907,1.665-1.104,3.783"/>
<path id="Stroke-10" fill="none" stroke="#000000" stroke-width="0.5" stroke-linecap="round" stroke-linejoin="round" d="
	M11.779,13.575c0.847-1.165,2.277-1.741,3.964-0.831"/>
<path id="Stroke-12" fill="none" stroke="#000000" stroke-width="0.5" stroke-linecap="round" stroke-linejoin="round" d="
	M17.699,12.269c1.007-1.006,2.484-1.123,3.549-0.21"/>
<path id="Fill-13" fill="none" d="M10.185,14.495c-0.61-0.423-1.262,0.191-1.448,0.959c-0.322,1.336,0.07,2.476,0.521,3.675
	c0.327,0.871,0.909,1.338,1.309,0.17"/>
<path id="Stroke-14" fill="none" stroke="#000000" stroke-width="0.5" stroke-linecap="round" stroke-linejoin="round" d="
	M10.185,14.495c-0.61-0.423-1.262,0.191-1.448,0.959c-0.322,1.336,0.07,2.476,0.521,3.675c0.327,0.871,0.909,1.338,1.309,0.17"/>
<path id="Stroke-16" fill="none" stroke="#000000" stroke-width="0.5" stroke-linecap="round" stroke-linejoin="round" d="
	M12.837,14.552c0.516-0.517,1.191-0.893,2.501-0.697"/>
<path id="Fill-21" fill="none" stroke="#000000" stroke-width="0.5" stroke-miterlimit="10" d="M17.262,11.916
	c1.201,2.981,1.342,4.683,1.037,5.586c-0.435,1.296-1.775,0.966-2.209,0.43"/>
<path id="Stroke-22" fill="none" stroke="#000000" stroke-width="0.5" stroke-linecap="round" stroke-linejoin="round" d="
	M17.262,11.916c1.201,2.981,1.342,4.683,1.037,5.586c-0.435,1.296-1.775,0.966-2.209,0.43"/>
<path id="Stroke-24" fill="none" stroke="#000000" stroke-width="0.5" stroke-linecap="round" stroke-linejoin="round" d="
	M21.109,13.575c0,0-0.854-0.871-2.478-0.416"/>
<path id="Stroke-25" fill="none" stroke="#000000" stroke-width="0.5" stroke-linecap="round" stroke-linejoin="round" d="
	M14.293,18.983c1.412,0.823,3.579,1.28,5.259,0.825"/>
<path id="Stroke-26" fill="none" stroke="#000000" stroke-width="0.5" stroke-linecap="round" stroke-linejoin="round" d="
	M14.633,19.974c0.644,1.21,4.062,2.069,4.246,0.771"/>
<path id="Stroke-49" fill="none" stroke="#000000" stroke-width="0.5" stroke-linecap="round" stroke-linejoin="round" d="
	M21.754,15.893c-0.1,1.161-0.522,4.001-0.823,5.099c-0.252,0.92-0.368,0.806-0.919,1.463"/>
<path id="Stroke-50" fill="none" stroke="#000000" stroke-width="0.5" stroke-linecap="round" stroke-linejoin="round" d="
	M17.104,7.466c-1.045-1.391-2.461-2.284-4.266-3.028"/>
<path id="Stroke-51" fill="none" stroke="#000000" stroke-width="0.5" stroke-linecap="round" stroke-linejoin="round" d="
	M18.431,6.059c0.645-0.788,1.508-1.069,2.803-1.361"/>
<path id="Stroke-52" fill="none" stroke="#000000" stroke-width="0.5" stroke-linecap="round" stroke-linejoin="round" d="
	M21.233,8.031c0.621-0.343,1.303-0.588,2.018-0.563"/>
<path id="Stroke-53" fill="none" stroke="#000000" stroke-width="0.5" stroke-linecap="round" stroke-linejoin="round" d="
	M11.38,8.567c-0.153-1.332-1.441-2.305-2.776-2.191"/>
<path fill-rule="evenodd" clip-rule="evenodd" d="M27.002,27.328c0.034-0.081,0.071-0.158,0.092-0.24
	c0.094-0.348-0.086-0.627-0.47-0.732c-0.172-0.045-0.172-0.045-0.127-0.185c0.007-0.021,0.015-0.041,0.017-0.062
	c0.022-0.188,0.028-0.367-0.145-0.519c-0.213-0.181-0.585-0.232-0.896-0.116c-0.056,0.021-0.101,0.031-0.153,0
	c-0.058-0.032-0.054-0.073-0.037-0.12c0.02-0.085,0.024-0.17,0.018-0.258c-0.028-0.342-0.411-0.51-0.663-0.502
	c-0.135,0.004-0.261,0.032-0.396,0c-0.069-0.017-0.141,0.021-0.201,0.051c-0.123,0.061-0.229,0.132-0.327,0.215
	c-0.103,0.086-0.103,0.084-0.216,0.011c-0.374-0.248-0.778-0.462-1.233-0.597c-0.478-0.14-0.923-0.131-1.299,0.193
	c-0.049,0.047-0.104,0.035-0.163,0.019c-0.993-0.271-2.01-0.463-3.047-0.571c-0.61-0.065-1.222-0.114-1.838-0.114
	c-0.662,0-1.323-0.017-1.99,0.049c0.035-0.061,0.081-0.102,0.114-0.148c0.19-0.276,0.214-0.563,0.029-0.844
	c-0.164-0.251-0.429-0.382-0.778-0.402h-0.382c-0.127,0.022-0.258,0.019-0.387,0.047c-0.449,0.086-0.864,0.243-1.266,0.425
	c-0.199,0.09-0.382,0.118-0.572-0.004c-0.031-0.021-0.069-0.029-0.106-0.033c-0.325-0.034-0.687,0.084-0.806,0.389
	c-0.026,0.071-0.053,0.141-0.056,0.214c-0.003,0.041-0.019,0.073-0.074,0.086c-0.051,0.012-0.095,0.016-0.137-0.021
	c-0.12-0.114-0.285-0.163-0.457-0.194c-0.3-0.055-0.564,0.056-0.703,0.282c-0.07,0.112-0.093,0.237-0.104,0.361
	c-0.005,0.069-0.032,0.088-0.117,0.081c-0.385-0.028-0.69,0.154-0.775,0.462c-0.035,0.118-0.03,0.239-0.026,0.359
	c0.002,0.098-0.023,0.116-0.13,0.071c-0.101-0.045-0.204-0.064-0.319-0.051c-0.307,0.039-0.508,0.225-0.521,0.486
	c-0.011,0.216,0.032,0.429,0.078,0.639c0.019,0.094-0.007,0.163-0.097,0.22c-0.264,0.171-0.481,0.383-0.693,0.594
	c-0.192,0.191-0.426,0.37-0.452,0.643v0.312c0.048,0.085,0.074,0.181,0.134,0.262c0.363,0.492,1.232,0.533,1.662,0.08
	c0.157-0.169,0.318-0.335,0.496-0.486c0.044-0.036,0.07-0.045,0.12-0.006c0.101,0.073,0.212,0.139,0.341,0.182
	c0.238,0.076,0.454,0.056,0.645-0.094c0.114-0.09,0.209-0.188,0.276-0.308c0.123,0.081,0.242,0.152,0.375,0.207
	c0.352,0.149,0.699,0.078,0.924-0.191c0.081-0.094,0.144-0.196,0.167-0.309c0.019-0.092,0.05-0.071,0.114-0.032
	c0.132,0.079,0.276,0.136,0.435,0.167c0.528,0.099,0.926-0.202,0.84-0.637c-0.013-0.071-0.036-0.141-0.057-0.223
	c0.177,0.053,0.348,0.086,0.528,0.075c0.35-0.016,0.603-0.195,0.633-0.457c0.015-0.12-0.023-0.234-0.09-0.342
	c-0.029-0.042-0.023-0.064,0.044-0.073c0.758-0.105,1.519-0.171,2.287-0.188c1.066-0.018,2.125,0.047,3.175,0.204
	c1.18,0.181,2.31,0.472,3.388,0.907c0.024,0.008,0.065,0.01,0.067,0.018c-0.062,0.06-0.105,0.106-0.156,0.151
	c-0.12,0.108-0.21,0.235-0.218,0.388c-0.017,0.254,0.224,0.47,0.594,0.539c0.12,0.022,0.243,0.021,0.382,0.022
	c-0.066,0.082-0.126,0.149-0.164,0.224c-0.199,0.375,0.014,0.702,0.505,0.779c0.221,0.034,0.429-0.008,0.644-0.063
	c0,0.094-0.008,0.18,0,0.266c0.037,0.331,0.288,0.576,0.687,0.58c0.053,0,0.066,0.017,0.083,0.056
	c0.102,0.257,0.262,0.472,0.608,0.549h0.329c0.339-0.019,0.631-0.144,0.915-0.28c0.277-0.135,0.535-0.289,0.777-0.466
	c0.507-0.362,0.827-0.812,1.011-1.337v-0.247C27.608,27.464,27.319,27.292,27.002,27.328z M8.361,27.35
	c-0.113,0.157-0.183,0.171-0.359,0.06c-0.359-0.228-0.592-0.535-0.803-0.858c-0.211-0.323-0.279-0.669-0.312-1.035
	c0.02-0.043-0.041-0.124,0.05-0.148c0.096-0.021,0.188-0.017,0.259,0.073c0.108,0.137,0.205,0.279,0.282,0.427
	c0.193,0.385,0.442,0.741,0.723,1.082c0.065,0.077,0.125,0.157,0.168,0.242C8.395,27.245,8.399,27.298,8.361,27.35z M9.714,27.273
	c-0.077,0.068-0.16,0.064-0.251,0.024c-0.259-0.12-0.471-0.285-0.645-0.479c-0.508-0.561-0.787-1.202-0.951-1.879
	c-0.018-0.069-0.012-0.147-0.008-0.219c0.005-0.07,0.016-0.117,0.045-0.149c0.032-0.063,0.1-0.112,0.207-0.112
	c0.054,0,0.097,0.015,0.131,0.033c0.077,0.008,0.12,0.089,0.172,0.146c0.119,0.125,0.211,0.268,0.278,0.417
	c0.243,0.549,0.583,1.055,0.95,1.554c0.053,0.069,0.1,0.143,0.146,0.215C9.885,26.974,9.854,27.149,9.714,27.273z M10.969,26.891
	c-0.134-0.031-0.247-0.089-0.345-0.171c-0.447-0.362-0.83-0.765-1.149-1.21c-0.125-0.176-0.191-0.374-0.29-0.562
	c-0.067-0.124-0.133-0.253-0.224-0.37c-0.13-0.167-0.162-0.354-0.181-0.513c0-0.04,0-0.051,0-0.061
	c0.004-0.129,0.03-0.198,0.095-0.214c0.052-0.056,0.132-0.092,0.242-0.092c0.094,0,0.165,0.026,0.216,0.069
	c0.019,0.008,0.037,0.021,0.054,0.032c0.045,0.032,0.076,0.073,0.097,0.116c0.013,0.015,0.026,0.028,0.042,0.043
	c0.207,0.215,0.346,0.459,0.459,0.712c0.264,0.583,0.629,1.122,1.028,1.648c0.091,0.116,0.173,0.236,0.208,0.375
	C11.264,26.861,11.174,26.933,10.969,26.891z M12.302,26.053c-0.07,0.081-0.195,0.057-0.297,0.043
	c-0.211-0.033-0.38-0.133-0.537-0.247c-0.405-0.286-0.649-0.66-0.838-1.062c-0.154-0.327-0.282-0.658-0.358-1.003
	c-0.012-0.059-0.017-0.118-0.023-0.176c0.006-0.051,0.006-0.104,0.018-0.157c0.011-0.049,0.036-0.088,0.079-0.107
	c0.037-0.043,0.097-0.074,0.181-0.074c0.056,0,0.102,0.015,0.136,0.035c0.012,0,0.025,0.004,0.038,0.019
	c0.089,0.102,0.206,0.191,0.244,0.313c0.169,0.526,0.51,0.993,0.807,1.476c0.148,0.241,0.307,0.481,0.489,0.713
	C12.291,25.892,12.368,25.976,12.302,26.053z M13.332,23.695c-0.207,0.118-0.449,0.154-0.69,0.191
	c-0.283,0.047-0.567,0.083-0.85,0.128c-0.108,0.017-0.174,0-0.208-0.094c-0.064-0.171-0.135-0.339-0.211-0.506
	c-0.018-0.045,0.014-0.052,0.038-0.063c0.479-0.218,0.972-0.404,1.52-0.476c0.138-0.019,0.279-0.021,0.415,0.016
	c0.192,0.056,0.309,0.189,0.31,0.398C13.647,23.445,13.523,23.586,13.332,23.695z M21.513,24.74
	c-0.012-0.004-0.026-0.012-0.053-0.024c0.151-0.111,0.318-0.111,0.479-0.068c0.486,0.132,0.926,0.333,1.3,0.628
	c0.032,0.026,0.075,0.055,0.012,0.088c-0.047,0.024-0.063,0.105-0.149,0.051C22.619,25.117,22.074,24.92,21.513,24.74z
	 M22.191,27.271c-0.093,0-0.181-0.006-0.262-0.037c-0.122-0.049-0.137-0.102-0.058-0.189c0.052-0.061,0.125-0.102,0.192-0.15
	c0.606-0.441,1.192-0.905,1.731-1.405c0.086-0.077,0.153-0.165,0.223-0.253c0.102-0.119,0.251-0.19,0.395-0.271
	c0.012-0.011,0.02-0.011,0.03-0.009c0.024-0.01,0.053-0.019,0.088-0.019c0.109,0,0.179,0.065,0.21,0.144
	c0.037,0.04,0.039,0.096,0.014,0.182c-0.024,0.078-0.057,0.155-0.102,0.223c-0.377,0.539-0.813,1.039-1.414,1.428
	C22.899,27.133,22.484,27.271,22.191,27.271z M22.987,28.264c-0.062,0.017-0.124,0.022-0.188,0.022
	c-0.235,0-0.299-0.092-0.183-0.257c0.068-0.1,0.168-0.183,0.276-0.256c0.62-0.422,1.21-0.869,1.715-1.388
	c0.217-0.221,0.474-0.415,0.764-0.573c0.015-0.011,0.027-0.031,0.05-0.017c0.008-0.002,0.014-0.004,0.02-0.006
	c0.043-0.026,0.099-0.043,0.168-0.043c0.034,0,0.063,0.004,0.089,0.01c0.009,0.002,0.015,0.002,0.021,0.005
	c0.011,0,0.021,0.002,0.03,0.004c0.003,0,0.005-0.002,0.007-0.002c0.091,0,0.153,0.042,0.19,0.104
	c0.053,0.026,0.063,0.086,0.032,0.182c-0.004,0.012-0.008,0.021-0.012,0.03c0,0.002-0.002,0.004-0.004,0.006
	c-0.063,0.186-0.171,0.354-0.354,0.484c-0.172,0.124-0.338,0.256-0.477,0.406c-0.427,0.462-1,0.779-1.597,1.072
	C23.359,28.136,23.188,28.223,22.987,28.264z M24.173,29.03c-0.283,0.067-0.381,0.026-0.397-0.254
	c-0.006-0.096,0.033-0.173,0.123-0.238c0.269-0.19,0.524-0.395,0.796-0.584c0.365-0.252,0.651-0.562,0.968-0.85
	c0.156-0.147,0.331-0.277,0.537-0.383c0.028-0.014,0.049-0.021,0.075-0.016c0.024-0.013,0.051-0.021,0.088-0.021
	c0.035,0,0.067,0.01,0.095,0.024c0.057,0.024,0.094,0.069,0.107,0.121c0.022,0.035,0.024,0.075,0.011,0.146
	c-0.019,0.092-0.06,0.182-0.116,0.261c-0.415,0.591-0.919,1.121-1.607,1.52C24.645,28.88,24.417,28.971,24.173,29.03z M27.13,27.893
	c0.004,0.049-0.014,0.092-0.051,0.125c-0.004,0.026-0.017,0.051-0.034,0.069c-0.035,0.075-0.063,0.143-0.118,0.203
	c-0.005,0.006-0.009,0.009-0.013,0.013c-0.252,0.386-0.611,0.707-1.078,0.96c-0.262,0.143-0.534,0.273-0.85,0.337
	c-0.047,0.01-0.098,0.017-0.12,0.019c-0.14,0.002-0.305-0.153-0.293-0.246c0.005-0.028,0.027-0.032,0.047-0.04
	c0.795-0.296,1.358-0.803,1.863-1.363c0.094-0.104,0.216-0.177,0.356-0.226c0.022-0.006,0.041-0.008,0.064-0.006
	c0.008-0.002,0.014-0.007,0.022-0.007c0.032,0,0.059,0.009,0.079,0.022c0.047,0.009,0.079,0.033,0.098,0.065
	c0.002,0,0.002,0.002,0.002,0.002C27.145,27.835,27.143,27.864,27.13,27.893z"/>
</svg>
