<?xml version="1.0" encoding="UTF-8"?>
<svg width="30px" height="26px" viewBox="0 0 30 26" version="1.1" xmlns="http://www.w3.org/2000/svg" xmlns:xlink="http://www.w3.org/1999/xlink">
    <!-- Generator: sketchtool 52.4 (67378) - http://www.bohemiancoding.com/sketch -->
    <title>9D599E76-C02B-4FDC-8C84-1736FD826D19</title>
    <desc>Created with sketchtool.</desc>
    <g id="Navrh-webu" stroke="none" stroke-width="1" fill="none" fill-rule="evenodd">
        <g id="1" transform="translate(-263.000000, -449.000000)">
            <g id="Group-3" transform="translate(250.000000, 374.000000)">
                <g id="Group-9" transform="translate(0.000000, 67.000000)">
                    <g id="asset-/-emoji-/-a" transform="translate(4.000000, 2.000000)">
                        <g id="Group-4" transform="translate(10.652778, 6.000000)">
                            <path d="M0.7213,17.6867 C5.0658,25.65 21.74,25.7514 26.2223,18.239" id="Stroke-1" stroke="#FFFFFF" stroke-width="3.4425" stroke-linecap="round" stroke-linejoin="round"></path>
                            <path d="M7.6857,0 C9.3415,0 10.6857,1.9803 10.6857,4.4195 C10.6857,6.8587 9.3415,8.839 7.6857,8.839 C6.03,8.839 4.6857,6.8587 4.6857,4.4195 C4.6857,1.9803 6.03,0 7.6857,0 Z" id="Fill-2" fill="#FFFFFF"></path>
                            <path d="M20.8976,0 C22.5533,0 23.8976,1.9803 23.8976,4.4195 C23.8976,6.8587 22.5533,8.839 20.8976,8.839 C19.2419,8.839 17.8976,6.8587 17.8976,4.4195 C17.8976,1.9803 19.2419,0 20.8976,0 Z" id="Fill-3" fill="#FFFFFF"></path>
                        </g>
                    </g>
                </g>
            </g>
        </g>
    </g>
</svg>