<?xml version="1.0" encoding="UTF-8"?>
<svg width="25px" height="23px" viewBox="0 0 25 23" version="1.1" xmlns="http://www.w3.org/2000/svg" xmlns:xlink="http://www.w3.org/1999/xlink">
    <!-- Generator: sketchtool 52.4 (67378) - http://www.bohemiancoding.com/sketch -->
    <title>1C005373-B32E-49E1-9792-D9BF88D97721</title>
    <desc>Created with sketchtool.</desc>
    <g id="Navrh-webu" stroke="none" stroke-width="1" fill="none" fill-rule="evenodd">
        <g id="1" transform="translate(-459.000000, -451.000000)">
            <g id="Group-3" transform="translate(250.000000, 374.000000)">
                <g id="Group-8" transform="translate(193.000000, 67.000000)">
                    <g id="asset-/-emoji-/-b" transform="translate(4.000000, 3.000000)">
                        <g id="Group-4" transform="translate(13.652778, 7.000000)">
                            <path d="M0.7213,20.7277 L20.7213,20.7277" id="Stroke-1" stroke="#FFFFFF" stroke-width="3.4425" stroke-linecap="round" stroke-linejoin="round"></path>
                            <path d="M4.1153,0 C5.7711,0 7.1153,1.9803 7.1153,4.4195 C7.1153,6.8586 5.7711,8.8389 4.1153,8.8389 C2.4596,8.8389 1.1153,6.8586 1.1153,4.4195 C1.1153,1.9803 2.4596,0 4.1153,0 Z" id="Fill-2" fill="#FFFFFF"></path>
                            <path d="M17.3272,0 C18.9829,0 20.3272,1.9803 20.3272,4.4195 C20.3272,6.8586 18.9829,8.8389 17.3272,8.8389 C15.6715,8.8389 14.3272,6.8586 14.3272,4.4195 C14.3272,1.9803 15.6715,0 17.3272,0 Z" id="Fill-3" fill="#FFFFFF"></path>
                        </g>
                    </g>
                </g>
            </g>
        </g>
    </g>
</svg>