<?xml version="1.0" encoding="utf-8"?>
<!-- Generator: Adobe Illustrator 24.1.0, SVG Export Plug-In . SVG Version: 6.00 Build 0)  -->
<svg version="1.1" id="Layer_1" xmlns="http://www.w3.org/2000/svg" xmlns:xlink="http://www.w3.org/1999/xlink" x="0px" y="0px"
	 viewBox="0 0 48 48" style="enable-background:new 0 0 48 48;" xml:space="preserve">
<g>
	<path d="M33.2,27.3V26H30l-1.3,1.2l-1.9-4.5c-0.6-1.5-1.7-2.2-3.3-2.2h-6.2h-6.8c-1.6,0-2.8,0.7-3.3,2.2l-2,4.5L3.9,26H0.5v1.3h2.8
		l1,0.9L3,29.4c-0.9,0.7-1.5,1.9-1.5,3.1v5.1c0,0.9,0.4,1.7,1.2,2.2v2.2c0,0.9,0.7,1.7,1.7,1.7h2.8c0.9,0,1.7-0.7,1.7-1.7v-1.7h16.1
		v1.7c0,0.9,0.7,1.7,1.7,1.7h2.8c0.9,0,1.7-0.7,1.7-1.7v-2.2c0.7-0.4,1.2-1.2,1.2-2v-5.1c0-1.2-0.6-2.3-1.5-3.1l-1.6-1.3l1-0.9H33.2
		z M8.4,23.1c0.3-0.9,1-1.3,2-1.3h6.7h6.2c1,0,1.7,0.4,2,1.3l2.2,4.8l-1.6,1.3h-8.9H7.8l-1.6-1.3L8.4,23.1z M7.5,41.9
		c0,0.1-0.1,0.3-0.3,0.3H4.4c-0.1,0-0.3-0.1-0.3-0.3v-1.7h3.3V41.9z M29.7,41.9c0,0.1-0.1,0.3-0.3,0.3h-2.8c-0.1,0-0.3-0.1-0.3-0.3
		v-1.7h3.3l0,0C29.7,40.1,29.7,41.9,29.7,41.9z M29.9,30.4c0.6,0.6,1,1.3,1,2v5.1c0,0.6-0.6,1.2-1.2,1.2H4c-0.6,0-1.2-0.6-1.2-1.2
		v-5.1c0-0.9,0.3-1.6,1-2l1.5-1.3l0.4,0.3l1.5,1.3h9.9h9.4l1.5-1.3l0.4-0.3L29.9,30.4z"/>
	<rect x="11.3" y="36.2" width="11.3" height="1.3"/>
	<path d="M12.1,34.7c0.1-0.3,0-0.6-0.1-0.7l-2-1.9c-0.3-0.3-0.7-0.3-1,0c-0.3,0.3-0.3,0.7,0,1l0.9,0.7H6.9c-1.5,0-1.9-1.5-1.9-1.5
		c-0.1-0.3-0.4-0.6-0.9-0.4c-0.3,0.1-0.6,0.4-0.4,0.9c0,0.1,0.7,2.3,3.2,2.3h4.6C11.8,35.2,12,35,12.1,34.7z"/>
	<path d="M27,33.7H24l0.9-0.7c0.3-0.3,0.3-0.7,0-1c-0.3-0.3-0.7-0.3-1,0l-2,2c-0.1,0.1-0.3,0.4-0.1,0.7c0.1,0.3,0.3,0.4,0.6,0.4H27
		c2.3,0,3.2-2.3,3.2-2.3c0.1-0.3-0.1-0.7-0.4-0.9c-0.3-0.1-0.7,0.1-0.9,0.4C28.8,32.4,28.3,33.7,27,33.7z"/>
</g>
<g>
	<path d="M43.3,10.5c-0.8-1.1-1.9-1.1-3-0.4c0-0.2,0-0.4,0-0.6c0-0.2-0.2-0.2-0.2-0.4c1.3-0.8,0-3-1.3-2.5c-0.2-0.4-0.6-0.8-1.3-0.8
		c-0.6-0.2-1.1,0.2-1.5,0.6c-0.8-1.5-3.4-0.4-3.4,1.3c-0.8,0-1.1,0.8-0.6,1.3C31.8,9,31.8,9,31.8,9.2l0,0l0,0c0,3.6,0,7.2,0,11
		c0,0.2,0,0.6,0.2,0.8c0.4,0.4,1.3,0.2,1.7,0.4c1.7,0.2,3.6,0.2,5.3,0c1.3-0.2,0.8-0.8,1.1-1.9v-0.2c0.6,0.4,1.7,0.4,2.3,0
		c1.3-0.8,1.5-2.8,1.5-4.2C44.1,13.7,44.3,11.6,43.3,10.5z M32.3,9.2c0.2-0.6,3.4-0.4,4-0.4c1.1,0,2.3-0.2,3.4,0.2
		c0.6,0.2,0.6,1.1,0.4,1.7c-1.7-0.2-3.2-0.2-4.7-0.2c-1.1,0-2.1,0-3.2,0C32.3,10.1,32.3,9.7,32.3,9.2z M40.3,12.6L40.3,12.6
		c0.6-0.4,1.5-0.2,1.7,0.2c0.2,0.4,0.2,1.1,0.2,1.3c0,0.6,0,1.1-0.2,1.7c0,0.4-0.2,1.1-0.6,1.3c-0.4,0-0.8,0-1.1-0.2
		c0-1.1,0-1.9,0-3C40.3,13.5,40.3,13,40.3,12.6z M32.9,7.7c0.2,0,0.2,0,0.2-0.2c-0.2-1.5,2.1-2.3,2.8-1.1c0,0.2,0.2,0.2,0.2,0
		c0.4-0.2,0.6-0.6,1.1-0.6c0.4,0,1.1,0.4,1.3,0.8c0,0.2,0.2,0.2,0.2,0.2c1.3-0.6,1.9,1.3,1.1,1.9c-0.2-0.2-0.6-0.2-1.1-0.2
		c-1.5,0-2.8,0-4.2,0c-0.4,0-1.3-0.2-1.9,0C32.3,8.2,32.3,7.5,32.9,7.7z M39.5,20.9c-0.2,0.2-1.3,0.2-1.5,0.2c-0.4,0-0.8,0-1.3,0
		c-0.8,0-1.7,0-2.5-0.2c-0.4,0-1.1,0-1.5-0.2c-0.4-0.2-0.2-0.8-0.4-1.3c0-3,0-5.7,0-8.7c1.3-0.2,2.3,0,3.6,0s2.8,0,4,0.2v0.2
		c0,0.8,0,1.7,0,2.5c0,1.7,0,3.4-0.2,4.9C39.9,19.2,40.1,20.5,39.5,20.9z M43.7,14.7c0,1.1,0,2.5-0.6,3.4c-0.6,0.8-1.9,1.3-2.8,0.6
		c0-0.4,0-0.8,0-1.3c0.4,0.2,1.3,0.2,1.7-0.2c0.2-0.2,0.4-0.6,0.4-0.8c0.2-0.6,0.2-1.5,0.2-2.1s0-1.7-0.4-2.1
		c-0.4-0.4-1.3-0.4-1.9,0c0-0.2,0-0.4,0-0.6s0-0.6,0-1.1c0.6-0.4,1.1-0.6,1.9-0.4c0.6,0.2,1.1,0.6,1.3,1.3
		C43.9,12.4,43.7,13.7,43.7,14.7z"/>
	<path d="M35.9,11.6c-0.4,0.2-0.4,1.5-0.4,1.9c0,1.1-0.2,2.1-0.2,3.2c0,0.4-0.2,4,0.8,3.6c0.4-0.2,0.4-0.8,0.4-1.3
		c0-1.3,0.2-2.3,0.2-3.6C36.7,14.7,37.1,11.3,35.9,11.6z M36.3,15.2c0,1.3,0,2.5-0.2,3.8c0,0.2,0,0.2-0.2,0.4c0,0.2-0.2,0.2-0.2,0
		c-0.2-0.2-0.2-0.8-0.2-1.1c0-0.6,0-1.3,0-1.9c0-1.1,0-2.3,0.2-3.4c0-0.2,0-0.8,0.4-0.8c0.2,0,0.2,0.8,0.2,1.1
		C36.5,13.9,36.5,14.5,36.3,15.2z"/>
	<path d="M33.7,11.6c-0.4,0.2-0.4,1.3-0.4,1.7c0,1.1-0.2,2.1-0.2,3.2c0,0.4-0.2,4,0.8,3.6c0.4-0.2,0.4-0.8,0.4-1.3
		c0-1.3,0.2-2.3,0.2-3.6C34.4,14.7,34.8,11.3,33.7,11.6z M34,15.2c0,1.3,0,2.5-0.2,3.8c0,0.2,0,0.2-0.2,0.4c0,0.2-0.2,0.2-0.2,0
		c0-0.2,0-0.8,0-1.1c0-0.6,0-1.3,0-1.9c0-1.1,0-2.3,0.2-3.4c0-0.2,0-0.8,0.4-0.8c0.2,0,0.2,0.8,0.2,1.1C34.2,13.9,34.2,14.5,34,15.2
		z"/>
	<path d="M38.2,11.8c-0.4,0.2-0.4,1.3-0.4,1.7c0,1.1-0.2,2.1-0.2,3.2c0,0.4-0.2,4,0.8,3.6c0.4-0.2,0.4-0.8,0.4-1.3
		c0-1.3,0.2-2.3,0.2-3.6C39,14.7,39.3,11.3,38.2,11.8z M38.6,15.4c0,1.3,0,2.5-0.2,3.8c0,0.2,0,0.2-0.2,0.4c0,0.2-0.2,0.2-0.2,0
		c-0.2-0.2-0.2-0.8-0.2-1.1c0-0.6,0-1.3,0-1.9c0-1.1,0-2.3,0.2-3.4c0-0.2,0-0.8,0.4-0.8c0.2,0,0.2,0.8,0.2,1.1
		C38.8,14.1,38.6,14.7,38.6,15.4z"/>
	<path d="M42,10.5c-0.2,0-0.4,0.2,0,0.4c0.6,0.2,0.8,0.6,0.8,1.3c0,0.2,0.4,0.2,0.4,0C43.1,11.3,42.6,10.7,42,10.5z"/>
	<path d="M41.2,10.5c-0.2,0-0.2,0.4,0,0.4C41.4,10.9,41.4,10.5,41.2,10.5z"/>
</g>
<path d="M36.8,2.9c-5.9,0-10.7,4.8-10.7,10.7s4.8,10.7,10.7,10.7s10.7-4.8,10.7-10.7S42.7,2.9,36.8,2.9z M36.6,23.5
	c-5.5,0-9.9-4.4-9.9-9.9s4.4-9.9,9.9-9.9s9.9,4.4,9.9,9.9S42.1,23.5,36.6,23.5z"/>
</svg>
