<?xml version="1.0" encoding="utf-8"?>
<!-- Generator: Adobe Illustrator 24.1.0, SVG Export Plug-In . SVG Version: 6.00 Build 0)  -->
<svg version="1.1" id="Layer_1" xmlns="http://www.w3.org/2000/svg" xmlns:xlink="http://www.w3.org/1999/xlink" x="0px" y="0px"
	 viewBox="0 0 48 48" style="enable-background:new 0 0 48 48;" xml:space="preserve">
<g>
	<path d="M47.5,23.4v-0.8h-2l-0.7,0.7l-1.1-2.5c-0.3-0.8-1-1.3-2-1.3h-3.7h-3.9c-1,0-1.5,0.4-2,1.3L31,23.3l-0.7-0.7h-1.8v0.8h1.7
		l0.6,0.6l-0.8,0.7c-0.6,0.4-0.8,1.1-0.8,1.8v3c0,0.6,0.3,1,0.7,1.3V32c0,0.6,0.4,1,1,1h1.5c0.6,0,1-0.4,1-1v-1.1h9.4V32
		c0,0.6,0.4,1,1,1h1.5c0.6,0,1-0.4,1-1v-1.3c0.4-0.3,0.7-0.7,0.7-1.3v-3c0-0.7-0.3-1.4-0.8-1.8L45.4,24l0.6-0.6H47.5z M33,21
		c0.3-0.6,0.6-0.8,1.3-0.8h3.9h3.7c0.6,0,1,0.3,1.3,0.8l1.3,2.8l-0.8,0.8h-5.2h-5.5l-1.1-0.8L33,21z M32.6,31.9
		c0,0.1-0.1,0.1-0.1,0.1h-1.5c-0.1,0-0.1-0.1-0.1-0.1v-1h2v1H32.6z M45.5,31.9c0,0.1-0.1,0.1-0.1,0.1h-1.5c-0.1,0-0.1-0.1-0.1-0.1
		v-1h2l0,0v1H45.5z M45.5,25.3c0.4,0.3,0.6,0.7,0.6,1.3v3c0,0.4-0.3,0.7-0.7,0.7H30.5c-0.4,0-0.7-0.3-0.7-0.7v-3
		c0-0.4,0.1-0.8,0.6-1.3l0.8-0.7l0.3,0.1l0.8,0.7h5.8h5.5l0.8-0.7l0.3-0.1L45.5,25.3z"/>
	<rect x="34.7" y="28.6" width="6.6" height="0.8"/>
	<path d="M35.3,27.8c0-0.1,0-0.3-0.1-0.4L34,26.2c-0.1-0.1-0.4-0.1-0.6,0c-0.1,0.1-0.1,0.4,0,0.6l0.4,0.4h-1.7
		c-0.8,0-1.1-0.8-1.1-0.8c0-0.1-0.3-0.3-0.4-0.3c-0.1,0-0.3,0.3-0.3,0.4c0,0,0.4,1.4,1.8,1.4h2.7C35,28.1,35.1,27.9,35.3,27.8z"/>
	<path d="M43.8,27.2h-1.7l0.4-0.4c0.1-0.1,0.1-0.4,0-0.6s-0.4-0.1-0.6,0l-1.1,1.1c-0.1,0.1-0.1,0.3-0.1,0.4c0,0.1,0.1,0.3,0.4,0.3
		h2.7c1.4,0,1.8-1.3,1.8-1.4s0-0.4-0.3-0.4c-0.1,0-0.4,0-0.4,0.3C45,26.4,44.7,27.2,43.8,27.2z"/>
</g>
<path d="M24.7,24.8c-1-0.3-3.1-0.7-3.8-0.7c-0.7-0.7-4.2-3.9-7.3-3.9c-0.6,0-1.4,0-2.4,0.1c-0.8,0-1.7,0-2.1,0
	c-2.7,0-4.4,2.1-5.2,3.1c-0.1,0.1-0.3,0.3-0.3,0.4c-0.6,0-2.1,0-2.1,0H1.2l-0.1,0.3c0,0-0.6,1.3-0.6,3c0,1.7,0,4.1,2.3,4.1H4
	c0.3,1.1,1.3,2,2.4,2c1.3,0,2.3-1,2.4-2.1v0.1h9.3c0.3,1.1,1.3,2,2.4,2c1.3,0,2.3-0.8,2.4-2.1c0.4,0,1.3,0,2.1,0
	c1.7,0,1.8-0.7,2-1.8c0-0.3,0.1-0.6,0.1-0.8l0,0l0,0C27.4,26.5,26,25.1,24.7,24.8z M6.4,32.1c-0.8,0-1.5-0.7-1.5-1.5
	s0.7-1.5,1.5-1.5S8,29.8,8,30.6S7.4,32.1,6.4,32.1z M20.6,32.1c-0.8,0-1.5-0.7-1.5-1.5s0.7-1.5,1.5-1.5s1.5,0.7,1.5,1.5
	S21.5,32.1,20.6,32.1z M26.3,28.9C26.1,30,26.1,30,25.1,30c-1,0-1.7,0-2.1,0c-0.1-1.1-1.1-2-2.4-2c-1.3,0-2.3,0.8-2.4,2.1H8.9l0,0
	c-0.1-1.1-1.3-2.1-2.5-2.1S4.2,28.9,4,30.2H2.8c-1.3,0-1.3-1.4-1.3-3.2c0-1,0.3-2,0.4-2.3c0.6,0,1.5,0,2,0c0.3,0,0.4-0.3,0.8-0.7
	c0.7-0.8,2.3-2.8,4.5-2.8c0.4,0,1.3,0,2.1,0c0.8,0,1.8-0.1,2.4-0.1c2.1,0,4.6,1.8,5.9,3h-5.9v-1.5h-0.8V24H9.8c-1.7,0-2-1.1-2-1.3
	L7,22.9C7.1,23.6,7.8,25,9.8,25h10.7l0,0h0.1c0,0,2.7,0.4,3.8,0.7c1,0.3,2,1.3,2,2.4C26.4,28.4,26.4,28.6,26.3,28.9z"/>
<path d="M23,20.6c0.8,0.3,1.7,0.7,2.7,1c0.6,0.1,0.7-0.6,0.3-0.8c-0.8-0.3-1.7-0.7-2.7-1C22.7,19.6,22.5,20.5,23,20.6z"/>
<path d="M29.9,17.9c-0.6,0.7-1.1,1.4-1.7,2.3c-0.3,0.4,0.3,1,0.6,0.6c0.6-0.7,1.1-1.4,1.7-2.3C30.9,18.2,30.3,17.5,29.9,17.9z"/>
<path d="M25.8,17.9c0.3,0.8,0.4,1.7,0.7,2.7c0.1,0.6,1,0.3,0.8-0.3c-0.3-0.8-0.4-1.7-0.7-2.7C26.5,17.2,25.7,17.5,25.8,17.9z"/>
</svg>
