<?xml version="1.0" encoding="utf-8"?>
<!-- Generator: Adobe Illustrator 24.1.0, SVG Export Plug-In . SVG Version: 6.00 Build 0)  -->
<svg version="1.1" id="Layer_1" xmlns="http://www.w3.org/2000/svg" xmlns:xlink="http://www.w3.org/1999/xlink" x="0px" y="0px"
	 viewBox="0 0 48 48" style="enable-background:new 0 0 48 48;" xml:space="preserve">
<path d="M36.4,36.5l-3.6-13.2c-0.4-1.5-1.8-2.5-3.2-2.5h-1c-0.1,0-0.1,0-0.2,0h-0.1h-3.1c2.4-0.7,4.1-3.1,4.1-5.9c0-3.4-2.5-6-5.5-6
	l0,0c-3.1,0-5.5,2.7-5.5,6.1c0,2.7,1.8,5.2,4.1,5.9h-4.1c-1.5,0-2.9,1-3.2,2.5l-1.3,6.3l0,0l-0.8,3.8l0.3,0.3
	c0.2,0.1,0.4,0.2,0.6,0.3l4.1,0.6v3.2c0,0.2,0.1,0.5,0.3,0.7c0.2,0.2,0.4,0.3,0.7,0.3h10.4c0.2,0,0.5-0.1,0.7-0.3
	c0.2-0.2,0.3-0.4,0.3-0.7l-0.3-6.5l3.1,6.4c0.3,0.6,0.9,1,1.6,1c0.3,0,0.7-0.1,1-0.3l0,0C36.3,38.1,36.6,37.4,36.4,36.5z M19.8,13.3
	c0.1-0.2,0.2-0.5,0.3-0.7l6.9-0.7c0.1,0.2,0.3,0.4,0.4,0.6l-7.1,0.8l0,0H19.8z M22.6,11.8l2.4-1.4c0.6,0.2,1.1,0.5,1.6,1L22.6,11.8z
	 M23.8,10.2L23.8,10.2c0.1,0,0.2,0,0.3,0l-2.8,1.7L20.5,12C21.3,11,22.4,10.2,23.8,10.2z M19.5,15c0-0.4,0-0.8,0.1-1.1l1-0.1
	c2.4-0.3,6.6-0.7,6.6-0.7h0.3c0.2,0.6,0.4,1.2,0.4,1.8c0,2.7-1.8,4.8-4.3,4.8l0,0C21.5,19.7,19.6,17.6,19.5,15z M16.1,23.6
	c0.2-0.9,1.1-1.5,2-1.5h8l-10.9,6.2L16.1,23.6z M18.1,33.3L18.1,33.3l-3.9-0.6l0.5-2.7l13.8-7.9l0,0l0,0l0,0h0.9
	c0.3,0,0.6,0.1,0.8,0.2L18.1,33.3z M21.1,32.5l2.5,1c0.3,0.1,0.4,0.4,0.3,0.7c-0.1,0.3-0.3,0.5-0.6,0.4l-3.9-0.6L21.1,32.5z
	 M34.9,37.4c-0.1,0-0.2,0.1-0.3,0.1c-0.2,0-0.4-0.1-0.4-0.3L31,30.5c-0.2-0.4-0.6-0.7-1.1-0.7c-0.1,0-0.2,0-0.3,0
	c-0.6,0.1-1,0.6-1,1.2l0.1,6.4H19v-2.2l4.1,0.6c0.1,0,0.2,0,0.3,0c0.9,0,1.6-0.6,1.8-1.4c0.2-0.9-0.3-1.8-1.2-2.2l-2-0.8l9.2-8.3
	c0.1,0.2,0.2,0.3,0.2,0.5L35,37C35.1,37.1,35.1,37.4,34.9,37.4z"/>
</svg>
