<?xml version="1.0" encoding="utf-8"?>
<!-- Generator: Adobe Illustrator 24.1.0, SVG Export Plug-In . SVG Version: 6.00 Build 0)  -->
<svg version="1.1" id="Layer_1" xmlns="http://www.w3.org/2000/svg" xmlns:xlink="http://www.w3.org/1999/xlink" x="0px" y="0px"
	 viewBox="0 0 48 48" style="enable-background:new 0 0 48 48;" xml:space="preserve">
<path d="M45.6,20l-0.1-0.4H45c-0.1,0-2.4-0.1-3.3-0.1c-0.1-0.1-0.3-0.3-0.4-0.6c-1.3-1.5-3.9-4.7-8-4.7c-0.6,0-1.9,0-3.1-0.1
	c-1.3,0.1-2.8,0.1-3.6,0.1c-4.7,0-10.1,5-11.1,6.1c-0.9,0.1-4.2,0.7-5.8,1.2c-1.9,0.3-4,2.5-4,4.9v0.1c0.1,0.6,0.1,1,0.3,1.3
	c0.3,1.6,0.4,2.8,3,2.8c1.3,0,2.7,0,3.3,0.1c0.3,1.8,1.9,3.1,3.7,3.1c1.8,0,3.4-1.3,3.7-3.1h14.1v-0.1c0.3,1.8,1.8,3.3,3.7,3.3
	c1.8,0,3.4-1.3,3.7-3.1H43c3.4,0,3.4-3.7,3.4-6.2C46.5,22,45.6,20,45.6,20z M15.9,32.3c-1.3,0.1-2.4-0.9-2.4-2.4
	c0-1.3,1-2.4,2.4-2.4c1.3,0,2.4,1,2.4,2.4S17.3,32.3,15.9,32.3z M37.6,32.3c-1.3,0.1-2.4-0.9-2.4-2.4c0-1.3,1-2.4,2.4-2.4
	s2.4,1,2.4,2.4S38.9,32.3,37.6,32.3z M43.3,29.5h-1.9c-0.3-1.8-1.9-3.1-3.7-3.1c-1.9,0-3.4,1.3-3.7,3.3v-0.1H19.9
	c-0.3-1.8-1.9-3.1-3.7-3.1c-1.9,0-3.4,1.3-3.7,3.1h-2.1c-0.3,0.1-0.6,0.2-1,0.2c-1.7,0-2.5-1.3-2.4-2.6v0c0-0.3,0-0.5,0-0.8
	c0,0,0,0,0,0c0,0,0,0,0,0c0-1.6,1.6-3.3,3.1-3.7c1.6-0.4,5.8-1.2,5.8-1.2h16.6c3,0,4.2-2.1,4.4-3.1l-1.3-0.3c0,0.1-0.4,2.1-3.1,2.1
	h-4.6v-2.4h-1.3V20h-8.9c1.9-1.6,5.8-4.6,9-4.6c0.7,0,2.2,0,3.6,0.1c1.3,0,2.5,0.1,3.3,0.1c3.4,0,5.8,2.8,7,4.2c0.6,0.7,0.9,1,1.3,1
	c0.6,0,2.2,0,3,0.1c0.3,0.6,0.6,1.9,0.6,3.6C45.4,27.4,45.3,29.5,43.3,29.5z"/>
<path d="M5,38.7H3c-0.9,0-1.5-0.6-1.5-1.5V9.1c0-0.9,0.6-1.5,1.5-1.5H5c0.9,0,1.5,0.6,1.5,1.5v28.2C6.4,38.1,5.7,38.7,5,38.7z"/>
<g>
	<path d="M7.6,18.4c1,0.4,1.9,0.9,3,1.2c0.6,0.3,0.9-0.7,0.3-0.9c-1-0.4-1.9-0.9-3-1.2C7.3,17.4,7,18.2,7.6,18.4z"/>
	<path d="M15.6,15.7c-0.7,0.7-1.3,1.6-2.1,2.4c-0.4,0.4,0.3,1.2,0.6,0.7c0.7-0.7,1.3-1.6,2.1-2.4C16.7,16,16.1,15.3,15.6,15.7z"/>
	<path d="M11,15.6c0.3,1,0.4,2.1,0.7,3c0.1,0.6,1,0.4,0.9-0.1c-0.3-1-0.4-2.1-0.7-3C11.8,14.7,10.9,15,11,15.6z"/>
</g>
</svg>
