<?xml version="1.0" encoding="utf-8"?>
<!-- Generator: Adobe Illustrator 24.1.0, SVG Export Plug-In . SVG Version: 6.00 Build 0)  -->
<svg version="1.1" id="Layer_1" xmlns="http://www.w3.org/2000/svg" xmlns:xlink="http://www.w3.org/1999/xlink" x="0px" y="0px"
	 viewBox="0 0 48 48" style="enable-background:new 0 0 48 48;" xml:space="preserve">
<style type="text/css">
	.st0{fill-rule:evenodd;clip-rule:evenodd;}
</style>
<g>
	<path d="M43.2,21c-0.2-0.3-0.5-0.7-0.8-0.8c0-1.8,0.2-3.5,0.2-4.9c0.2-2.2-1.5-4.2-3.9-4.4c-1-0.2-2-0.2-3.2-0.2s-2.4,0-3.2,0.2
		c-2.2,0.2-3.9,2.2-3.9,4.4c0,1.3,0,3,0.2,4.9c-0.3,0.2-0.7,0.5-0.8,0.8c0,0-0.7,1-0.5,1.3c0.2,0.2,0.5,0,1.3,0c0,2.2,0,4.5,0,6.7
		c0,4.5-0.2,9.2-0.3,12.4c-0.2,2.2,1.5,4,3.7,4c0.8,0,2,0,3.4,0c1.3,0,2.4,0,3.4,0c2.2,0,3.9-1.8,3.7-4c-0.2-3.2-0.2-7.9-0.2-12.4
		c0-2.2,0-4.5,0.2-6.7c0.8,0,1.2,0.2,1.3,0C44.1,22,43.4,21,43.2,21z M39,12.4c0-0.7,0.7-1,1.2-0.7c0.8,0.7,1.5,1.5,1.8,2.5
		c0.2,0.5,0,0.8-0.2,1.2c0,0.2-0.2,0.2-0.2,0c-0.3-0.8-1-1.3-1.8-1.8C39.3,13.4,39,12.9,39,12.4L39,12.4z M33.1,11.7
		c0-0.2,0.2-0.3,0.2-0.5c0-0.2,0.2-0.2,0.3-0.3c1.2,0,2.4,0,3.7,0c0.2,0,0.3,0.2,0.3,0.3c0,0.2,0.2,0.3,0.2,0.5
		c0.2,0.3,0,0.5-0.3,0.5c-1.3-0.2-2.7-0.2-4,0C33.3,12.3,33,12.1,33.1,11.7z M35.5,19.1c1.8,0,4.4,0.3,5.7,1
		c0.2,0.2,0.3,0.3,0.2,0.5L40.7,25c0,0.2-0.2,0.3-0.5,0.3c-1-0.2-3.5-0.3-4.9-0.3s-3.9,0.3-4.9,0.3c-0.2,0-0.3-0.2-0.5-0.3l-0.7-4.4
		c0-0.2,0-0.3,0.3-0.5C31.1,19.5,33.6,19.1,35.5,19.1z M28.9,14.3c0.3-1,1-2,1.8-2.5c0.5-0.3,1.2,0,1.2,0.7l0,0c0,0.5-0.3,1-0.8,1.3
		c-0.8,0.3-1.5,1-1.8,1.8c0,0.2-0.2,0.2-0.2,0C28.9,15.1,28.9,14.8,28.9,14.3z M28.9,22.7c0-0.2,0.2-0.2,0.2,0l0.7,3.4
		c0,0.3,0.2,0.7,0.2,1v1.8l-1-0.2V22.7z M28.8,34.9v-5.5h1v2.7c0,0.3,0,0.7-0.2,1l-0.5,1.8C29.1,35.3,28.8,35.1,28.8,34.9z
		 M32.3,45.2h-0.2c-1.2,0-2.4-0.8-3-1.8c0,0,0-0.2,0,0c0.3,0.3,0.8,0.7,1.5,1C31.3,44.9,31.8,45,32.3,45.2L32.3,45.2z M29.8,40.7
		c-0.2-0.2-0.3-0.3-0.2-0.5l0.7-3.2c0-0.2,0.2-0.3,0.5-0.3c1,0.2,3.5,0.3,4.9,0.3s3.9-0.3,4.9-0.3c0.2,0,0.3,0.2,0.5,0.3l0.7,3.2
		c0,0.2,0,0.3-0.3,0.5c-1.3,0.7-3.7,1.3-5.7,1.2C33.5,42,30.9,41.3,29.8,40.7z M41.7,43.5c-0.7,1-1.7,1.7-3,1.7h-0.2c0,0,0,0,0-0.2
		c0.5-0.2,1-0.3,1.7-0.7C40.7,44.2,41.2,43.8,41.7,43.5C41.5,43.3,41.7,43.5,41.7,43.5z M42,34.9c0,0.2-0.3,0.3-0.5,0L41,33.1
		c-0.2-0.3-0.2-0.7-0.2-1v-2.7l1,0.2L42,34.9z M42,28.9h-1V27c0-0.3,0-0.7,0.2-1l0.8-3.4c0-0.2,0.2,0,0.2,0L42,28.9z"/>
</g>
<g>
	<g>
		<path d="M20.4,12.1c-0.2-0.3-0.5-0.7-0.8-0.8c0-1.8,0.2-3.5,0.2-4.9c0.2-2.2-1.5-4.2-3.9-4.4c-1-0.2-2-0.2-3.2-0.2s-2.4,0-3.2,0.2
			c-2.4,0-4,1.8-4,4.2c0,1.3,0,3,0.2,4.9c-0.3,0.2-0.5,0.5-0.8,1c0,0-0.7,1-0.5,1.3c0.2,0.2,0.5,0,1.3,0c0,2.2,0,4.5,0,6.7
			c0,4.5-0.2,9.2-0.3,12.4c0,2,1.7,3.9,3.9,4c0.8,0,2,0,3.4,0s2.4,0,3.4,0c2.2,0,3.9-1.8,3.7-4c-0.2-3.2-0.2-7.9-0.2-12.4
			c0-2.2,0-4.5,0.2-6.7c0.8,0,1.2,0.2,1.3,0C21,13.1,20.4,12.1,20.4,12.1z M16.2,3.5c0-0.7,0.7-1,1.2-0.7c0.8,0.7,1.5,1.5,1.8,2.5
			c0.2,0.5,0,0.8-0.2,1.2c0,0.2-0.2,0.2-0.2,0c-0.3-0.8-1-1.3-1.8-1.8C16.3,4.5,16,4,16.2,3.5L16.2,3.5z M10.3,2.8
			c0-0.2,0.2-0.3,0.2-0.5c0-0.2,0.2-0.2,0.3-0.3c1.2,0,2.4,0,3.7,0c0.2,0,0.3,0.2,0.3,0.3c0,0.2,0.2,0.3,0.2,0.5
			c0.2,0.3,0,0.5-0.3,0.5c-1.3-0.2-2.7-0.2-4,0C10.3,3.5,10.1,3.2,10.3,2.8z M12.5,10.2c1.8,0,4.4,0.3,5.7,1
			c0.2,0.2,0.3,0.3,0.2,0.5l-0.7,4.4c0,0.2-0.2,0.3-0.5,0.3c-1-0.2-3.5-0.3-4.9-0.3c-1.3,0-3.9,0.3-4.9,0.3c-0.2,0-0.3-0.2-0.5-0.3
			l-0.7-4.4c0-0.2,0-0.3,0.3-0.5C8.1,10.6,10.6,10.2,12.5,10.2z M6.1,5.4c0.2-1,0.8-2,1.8-2.5c0.5-0.3,1.2,0,1.2,0.7l0,0
			c0,0.5-0.3,1-0.8,1.3c-0.8,0.3-1.5,1-1.8,1.7c0,0.2-0.2,0.2-0.2,0C6.1,6.2,5.9,5.9,6.1,5.4z M5.9,13.8c0-0.2,0.2-0.2,0.2,0
			l0.8,3.4c0,0.3,0,0.7,0,1V20l-1-0.2V13.8z M5.9,26v-5.5l1,0v2.7c0,0.3,0,0.7-0.2,1L6.2,26C6.2,26.4,5.9,26.2,5.9,26z M9.3,36.3
			H9.1c-1.2,0-2.4-0.8-3-1.8c0,0,0-0.2,0,0c0.3,0.3,0.8,0.7,1.5,1C8.3,35.9,8.8,36.1,9.3,36.3L9.3,36.3z M6.7,31.7
			c-0.2-0.2-0.3-0.3-0.2-0.5l0.7-3.2c0-0.2,0.2-0.3,0.5-0.3c1,0.2,3.5,0.3,4.9,0.3c1.3,0,3.9-0.3,4.9-0.3c0.2,0,0.3,0.2,0.5,0.3
			l0.7,3.2c0,0.2,0,0.3-0.3,0.5c-1.3,0.7-3.7,1.3-5.7,1.2S8.1,32.4,6.7,31.7z M18.7,34.6c-0.7,1-1.7,1.7-3,1.7h-0.2c0,0,0,0,0-0.2
			c0.5-0.2,1-0.3,1.7-0.7C17.8,35.3,18.3,34.9,18.7,34.6L18.7,34.6z M19,26c0,0.2-0.3,0.3-0.5,0L18,24.2c-0.2-0.3-0.2-0.7-0.2-1
			v-2.7l1,0.2L19,26z M19,20h-1v-1.8c0-0.3,0-0.7,0.2-1l0.8-3.4c0-0.2,0.2,0,0.2,0L19,20z"/>
	</g>
	<path class="st0" d="M10.1,43.2v-7.7c0-0.3,0.2-0.5,0.5-0.5l0,0c0.3,0,0.5,0.2,0.5,0.5v7.7c0,0.3-0.2,0.5-0.5,0.5l0,0
		C10.4,43.7,10.1,43.3,10.1,43.2L10.1,43.2z"/>
	<path class="st0" d="M11.3,45.2c0-0.3-0.2-0.5-0.5-0.5c-0.3,0-0.5,0.2-0.5,0.5s0.2,0.5,0.5,0.5C10.9,45.7,11.3,45.4,11.3,45.2
		L11.3,45.2z"/>
	<path class="st0" d="M7.9,42v-4c0-0.2,0.2-0.3,0.5-0.3l0,0c0.3,0,0.5,0.2,0.5,0.3v4c0,0.2-0.2,0.3-0.5,0.3l0,0
		C8.3,42.3,7.9,42.2,7.9,42L7.9,42z"/>
	<path class="st0" d="M9.1,43.7c0-0.3-0.2-0.5-0.5-0.5s-0.5,0.2-0.5,0.5s0.2,0.5,0.5,0.5C8.8,44.4,9.1,44,9.1,43.7L9.1,43.7z"/>
	<path class="st0" d="M16.3,43.8v-4c0-0.2,0.2-0.3,0.5-0.3l0,0c0.3,0,0.5,0.2,0.5,0.3v4c0,0.2-0.2,0.3-0.5,0.3l0,0
		C16.5,44.2,16.3,44,16.3,43.8L16.3,43.8z"/>
	<path class="st0" d="M17.3,45.5c0-0.3-0.2-0.5-0.5-0.5s-0.5,0.2-0.5,0.5c0,0.3,0.2,0.5,0.5,0.5C17.2,46.2,17.3,45.9,17.3,45.5
		L17.3,45.5z"/>
	<path class="st0" d="M12.1,44.4v-7.7c0-0.3,0.2-0.5,0.5-0.5l0,0c0.3,0,0.5,0.2,0.5,0.5v7.7c0,0.3-0.2,0.5-0.5,0.5l0,0
		C12.5,45,12.1,44.7,12.1,44.4L12.1,44.4z"/>
	<path class="st0" d="M13.3,46.4c0-0.3-0.2-0.5-0.5-0.5s-0.5,0.2-0.5,0.5c0,0.3,0.2,0.5,0.5,0.5C13,47,13.3,46.7,13.3,46.4
		L13.3,46.4z"/>
	<path class="st0" d="M14.1,41.3v-7.7c0-0.3,0.2-0.5,0.5-0.5l0,0c0.3,0,0.5,0.2,0.5,0.5v7.7c0,0.3-0.2,0.5-0.5,0.5l0,0
		C14.5,41.8,14.1,41.7,14.1,41.3L14.1,41.3z"/>
	<path class="st0" d="M15.3,43.3c0-0.3-0.2-0.5-0.5-0.5s-0.5,0.2-0.5,0.5c0,0.3,0.2,0.5,0.5,0.5C15,43.8,15.3,43.7,15.3,43.3
		L15.3,43.3z"/>
</g>
</svg>
