<?xml version="1.0" encoding="utf-8"?>
<!-- Generator: Adobe Illustrator 24.1.0, SVG Export Plug-In . SVG Version: 6.00 Build 0)  -->
<svg version="1.1" id="Layer_1" xmlns="http://www.w3.org/2000/svg" xmlns:xlink="http://www.w3.org/1999/xlink" x="0px" y="0px"
	 viewBox="0 0 48 48" style="enable-background:new 0 0 48 48;" xml:space="preserve">
<style type="text/css">
	.st0{fill-rule:evenodd;clip-rule:evenodd;}
</style>
<g>
	<path class="st0" d="M43.7,21.5c-1.4-0.3-4.4-0.9-5.3-1c-0.9-0.9-5.9-5.6-10.3-5.6c-0.7,0-2,0-3.3,0.1c-1.1,0-2.3,0.1-2.9,0.1
		c-3.7,0-6.2,2.9-7.3,4.3c-0.1,0.1-0.3,0.4-0.4,0.6c-0.9,0-2.9,0.1-3,0.1h-0.4l-0.1,0.1c0,0-0.1,0.3-0.3,0.7c0,0-0.1-0.1-0.3-0.1H4
		c-0.3,0-0.4,0.1-0.4,0.4c0,0.3,0.1,0.4,0.4,0.4h6.2l0,0c-0.1,0.7-0.3,1.6-0.3,2.6c0,0.6,0,1.4,0.1,2.1H4.3c-0.3,0-0.4,0.1-0.4,0.4
		c0,0.3,0.1,0.4,0.4,0.4h5.7c0.3,1.6,1,2.9,2.9,2.9h1.7c0.3,1.6,1.7,2.9,3.4,2.9c1.7,0,3.1-1.3,3.4-3v0.1h13
		c0.3,1.6,1.7,2.9,3.4,2.9c1.7,0,3.1-1.3,3.4-2.9c0.6,0,1.7,0,3,0c2.3,0,2.4-1,2.7-2.6c0-0.4,0.1-0.7,0.3-1.3l0,0l0,0
		C47.4,23.9,45.5,21.9,43.7,21.5z M18.1,31.8c-1.3,0-2.3-1-2.3-2.3s1-2.3,2.3-2.3c1.3,0,2.3,1,2.3,2.3
		C20.4,30.8,19.4,31.8,18.1,31.8z M37.9,31.8c-1.3,0-2.3-1-2.3-2.3s1-2.3,2.3-2.3c1.3,0,2.3,1,2.3,2.3
		C40.2,30.8,39.2,31.8,37.9,31.8z M46,27.2c-0.3,1.4-0.3,1.6-1.6,1.6s-2.4,0-3,0c-0.3-1.6-1.7-2.9-3.4-2.9c-1.7,0-3.1,1.3-3.4,2.9
		h-13v0.3c-0.3-1.7-1.7-3-3.4-3s-3.1,1.3-3.4,2.9h-1.7c-1.7,0-1.9-2-1.9-4.4c0-1.4,0.4-2.7,0.6-3.3c0.7,0,2.1-0.1,2.7-0.1
		c0.4,0,0.7-0.3,1.1-1c1-1.3,3.3-3.9,6.3-3.9c0.6,0,1.7,0,3-0.1c1.3,0,2.6-0.1,3.3-0.1c3,0,6.4,2.7,8.3,4.1h-8.3v-2.3h-1.3v2.3h-4.3
		c-2.4,0-2.7-1.7-2.9-1.9l-1.3,0.3c0.1,1,1.3,2.9,4,2.9h15.5l0,0h0.1c0,0,3.9,0.7,5.3,1c1.3,0.3,2.7,1.9,2.9,3.4
		C46.1,26.5,46,26.9,46,27.2z"/>
	<path class="st0" d="M2.5,21.9c0.3,0,0.4-0.1,0.4-0.4c0-0.3-0.1-0.4-0.4-0.4S2,21.2,2,21.5C2,21.6,2.2,21.9,2.5,21.9z"/>
	<path class="st0" d="M6.3,23.6c0.3,0,0.4-0.1,0.4-0.4c0-0.3-0.1-0.4-0.4-0.4H1c-0.3,0-0.4,0.1-0.4,0.4c0,0.3,0.1,0.4,0.4,0.4H6.3z"
		/>
	<path class="st0" d="M5.2,25.4c0.1,0,0.4-0.1,0.4-0.4c0-0.1-0.1-0.4-0.4-0.4H3.3c-0.1,0-0.4,0.1-0.4,0.4c0,0.1,0.1,0.4,0.4,0.4H5.2
		z"/>
	<path class="st0" d="M1.3,24.9c0,0.1,0.1,0.4,0.4,0.4c0.1,0,0.3-0.1,0.3-0.4c0-0.1-0.1-0.4-0.3-0.4C1.6,24.6,1.3,24.8,1.3,24.9z"/>
	<path class="st0" d="M2.8,26.5c-0.3,0-0.4,0.1-0.4,0.4c0,0.3,0.1,0.4,0.4,0.4s0.4-0.1,0.4-0.4C3.2,26.8,2.9,26.5,2.8,26.5z"/>
	<path class="st0" d="M6.6,28.4H1.3c-0.3,0-0.4,0.1-0.4,0.4c0,0.3,0.1,0.4,0.4,0.4h5.3c0.3,0,0.4-0.1,0.4-0.4
		C7,28.5,6.9,28.4,6.6,28.4z"/>
	<path class="st0" d="M5.5,30.1H3.6c-0.1,0-0.4,0.1-0.4,0.4c0,0.1,0.1,0.4,0.4,0.4h1.9c0.1,0,0.4-0.1,0.4-0.4
		C5.8,30.2,5.6,30.1,5.5,30.1z"/>
	<path class="st0" d="M2,30.1c-0.1,0-0.4,0.1-0.4,0.4c0,0.1,0.1,0.4,0.4,0.4c0.1,0,0.3-0.1,0.3-0.4C2.3,30.2,2.2,30.1,2,30.1z"/>
</g>
</svg>
