<?xml version="1.0" encoding="utf-8"?>
<!-- Generator: Adobe Illustrator 24.1.0, SVG Export Plug-In . SVG Version: 6.00 Build 0)  -->
<svg version="1.1" id="Layer_1" xmlns="http://www.w3.org/2000/svg" xmlns:xlink="http://www.w3.org/1999/xlink" x="0px" y="0px"
	 viewBox="0 0 48 48" style="enable-background:new 0 0 48 48;" xml:space="preserve">
<path d="M39.8,16c-0.3-1.9-1.9-3.2-3.7-3.2H23.9c-1.9,0-3.5,1.4-3.8,3.4h-1.6c-2.2,0-3.7,1.3-4.4,4.1l-0.5,1.9l-5,0.5
	c-1.6,0.2-2.6,1.4-2.6,3v7.1c0,0.2,0.2,0.5,0.5,0.5h2.5c0.5,1,1.6,1.6,2.6,1.6c1.2,0,2.2-0.6,2.6-1.6h17.1c0.5,1,1.6,1.6,2.6,1.6
	c1.2,0,2.2-0.6,2.6-1.6h4.1c0.2,0,0.5-0.2,0.5-0.5v-3.4l0.2-6.9L39.8,16z M14.9,20.5c0.6-2.3,1.7-3.3,3.5-3.3H20V22h-5.5L14.9,20.5z
	 M14.4,23h5.7v5.7h-5.7V23z M8.6,23.7l4.8-0.5v5.7h-3.2v-0.3c0-0.8,0-3-2.2-3H6.9C7,24.5,7.7,23.9,8.6,23.7z M8.5,31.7V32H6.9v-2.4
	h2.3C8.8,30.3,8.5,31,8.5,31.7z M6.9,28.8v-2.4h1.2c0.8,0,1.2,0.3,1.2,2.1v0.3H6.9z M11.4,33.9c-2.9,0-2.9-4.4,0-4.4
	S14.3,33.9,11.4,33.9z M30.9,31.7V32H14.3v-0.3c0-0.8-0.3-1.6-0.8-2.1h18.1C31.1,30.3,30.9,31,30.9,31.7z M33.8,33.9
	c-2.9,0-2.9-4.4,0-4.4S36.7,33.9,33.8,33.9z M40,32.1h-3.3v-0.3c0-0.8-0.3-1.6-0.8-2.1H40V32.1z M40.3,28.8H21.1V17.2h8.8
	c0.2,0,0.5-0.2,0.5-0.5c0-0.2-0.2-0.5-0.5-0.5h-8.7c0.2-1.3,1.4-2.4,2.8-2.4h12.2c1.4,0,2.5,1,2.8,2.3l1.1,5.9l0.1,1L40.3,28.8
	L40.3,28.8z"/>
<path d="M32.3,18.2c-2.3,0-4.3,1.9-4.3,4.3c0,2.3,1.9,4.3,4.3,4.3c2.3,0,4.3-1.9,4.3-4.3S34.7,18.2,32.3,18.2z M33.3,23.2v2.7h-1.9
	v-2.7h-2.6v-1.9h2.6v-2.6h1.9v2.6h2.6v1.9H33.3z"/>
<path d="M25.6,13.4v-2l0,0c0-0.7-0.5-1.2-1.2-1.2l0,0l0,0l0,0l0,0c-0.7,0-1.2,0.5-1.2,1.2l0,0v2C23.1,13.4,25.6,13.4,25.6,13.4z"/>
</svg>
