<?xml version="1.0" encoding="utf-8"?>
<!-- Generator: Adobe Illustrator 24.1.0, SVG Export Plug-In . SVG Version: 6.00 Build 0)  -->
<svg version="1.1" id="Layer_1" xmlns="http://www.w3.org/2000/svg" xmlns:xlink="http://www.w3.org/1999/xlink" x="0px" y="0px"
	 viewBox="0 0 48 48" style="enable-background:new 0 0 48 48;" xml:space="preserve">
<g>
	<path d="M30.7,16.2c-0.3,0-0.6,0.3-0.8,0.4c-1.4-0.4-2.5-0.8-3.5-1.1c-1.5-0.6-3.3,0.1-4,1.8c-0.3,0.7-0.6,1.4-0.8,2.2
		c-0.1,0.8-0.4,1.7-0.4,2.4c-0.4,1.7,0.7,3.2,2.4,3.8c1,0.3,2.2,0.7,3.6,1c0,0.3,0.3,0.6,0.4,0.8c0,0,0.6,0.7,0.8,0.7
		c0.1-0.1,0.1-0.4,0.3-1c1.5,0.4,3.3,1,4.9,1.5c3.3,1,6.7,2.1,8.9,2.9c1.5,0.6,3.2-0.3,3.8-1.8c0.1-0.6,0.4-1.4,0.7-2.4
		c0.3-1,0.6-1.7,0.7-2.4c0.4-1.5-0.6-3.2-2.1-3.6c-2.4-0.6-5.7-1.5-9.1-2.7c-1.5-0.4-3.3-1-4.9-1.5c0.1-0.6,0.4-0.8,0.3-1
		C31.6,15.8,30.7,16,30.7,16.2z M23.5,17.3c-0.4-0.1-0.6-0.7-0.3-1c0.7-0.4,1.4-0.7,2.2-0.8c0.4,0,0.6,0.1,0.8,0.4
		c0.1,0,0.1,0.1,0,0.1c-0.7,0-1.3,0.4-1.7,1C24.4,17.3,24,17.4,23.5,17.3L23.5,17.3z M21.7,21.5c-0.1,0-0.1-0.1-0.3-0.3
		c-0.1-0.1-0.1-0.1-0.1-0.3c0.3-0.8,0.6-1.7,0.8-2.7c0-0.1,0.1-0.1,0.3-0.1s0.3,0,0.4,0c0.3,0,0.4,0.1,0.3,0.4c-0.4,1-0.7,2-0.8,2.9
		C22.1,21.5,22,21.6,21.7,21.5z M27.6,21.3c0.4-1.4,1.3-3.1,2-3.9c0.1-0.1,0.3-0.1,0.4,0l3.1,1.4c0.1,0,0.1,0.1,0.1,0.4
		c-0.3,0.7-1,2.5-1.3,3.5s-0.6,2.9-0.8,3.6c0,0.1-0.1,0.1-0.4,0.3l-3.3-0.4c-0.1,0-0.3-0.1-0.3-0.4C26.9,24.6,27.2,22.7,27.6,21.3z
		 M22.7,25.1c-0.7-0.4-1.3-1.1-1.4-2c-0.1-0.4,0.3-0.8,0.7-0.7l0,0c0.4,0.1,0.7,0.4,0.8,0.8c0,0.7,0.4,1.3,1,1.7
		c0.1,0,0.1,0.1,0,0.1C23.3,25.3,23,25.1,22.7,25.1z M28.7,26.9C28.7,26.9,28.7,26.8,28.7,26.9l2.7,0.1c0.3,0.1,0.6,0,0.8,0.1
		l1.4,0.4l-0.3,0.7L28.7,26.9z M37.6,29.7l-4-1.3l0.3-0.7l2,0.6c0.3,0.1,0.4,0.1,0.7,0.3l1.3,0.8C37.9,29.6,37.8,29.7,37.6,29.7z
		 M45.9,29.4L45.9,29.4c-0.3,1-1.1,1.7-2.1,2c0,0-0.1,0,0,0c0.3-0.1,0.7-0.4,1.1-0.8C45.3,30,45.6,29.7,45.9,29.4L45.9,29.4z
		 M42,30.3c-0.1,0.1-0.3,0.1-0.4,0l-2.2-1.1c-0.1,0-0.1-0.1-0.1-0.4c0.3-0.7,1-2.5,1.3-3.5c0.3-1,0.6-2.9,0.8-3.6
		c0-0.1,0.1-0.1,0.4-0.3l2.5,0.3c0.1,0,0.3,0.1,0.3,0.4c0.1,1.1,0.1,2.9-0.4,4.5C43.8,27.8,42.8,29.6,42,30.3z M46.7,22.2
		c0.6,0.7,0.8,1.5,0.6,2.5v0.1c0,0,0,0-0.1,0c0-0.4,0-0.8-0.1-1.4C47,23,46.8,22.6,46.7,22.2C46.6,22.3,46.7,22.2,46.7,22.2z
		 M40.6,20.1c0.1,0,0.1,0.3-0.1,0.4H39c-0.3,0-0.6,0-0.8-0.1l-2-0.6l0.3-0.7L40.6,20.1z M36.1,18.7l-0.3,0.7L34.4,19
		c-0.3-0.1-0.4-0.1-0.7-0.3l-2.2-1.4c-0.1,0,0-0.1,0-0.1L36.1,18.7z"/>
</g>
<g>
	<path d="M8.1,19.1c0,0.1,0.3,0.1,0.8,0.6c-0.8,1.4-1.8,2.9-2.7,4.3c-1.8,2.9-3.8,5.9-5.3,7.8c-1,1.3-0.7,3.2,0.7,4
		c0.7,0.4,1.3,0.8,2.1,1.4c0.8,0.6,1.5,1,2.1,1.4c1.4,0.8,3.2,0.4,4-1c1.3-2.1,3.1-5.2,4.9-8.1c0.8-1.4,1.8-2.9,2.8-4.3
		c0.6,0.3,0.7,0.6,0.8,0.6c0.3-0.1,0.3-1.1,0.3-1.1c0-0.3,0-0.7-0.1-0.8c0.8-1.1,1.5-2.2,2.1-3.1c0.8-1.4,0.7-3.3-0.7-4.3
		c-0.4-0.4-1.3-1-2-1.4s-1.4-0.8-2.1-1.3c-1.5-0.8-3.5-0.3-4.3,1.1c-0.6,0.8-1.1,2-2,3.2c-0.3,0-0.7,0-0.8,0.1
		C8.8,18.4,7.9,18.8,8.1,19.1z M15,14.8c-0.1,0.3-0.7,0.6-1,0.4c-0.7,0-1.4,0-2,0.4c0,0.1-0.1,0-0.1,0c0-0.3,0-0.6,0.4-0.8
		c0.7-0.6,1.4-0.7,2.2-0.8C15,14,15.3,14.4,15,14.8L15,14.8z M18.7,17c-0.8-0.7-1.7-1.3-2.5-1.7c-0.3-0.1-0.3-0.3,0-0.4
		c0-0.1,0.3-0.1,0.3-0.3c0-0.1,0.3-0.1,0.4-0.1c0.8,0.6,1.5,1,2.4,1.5c0,0.1,0.1,0.3,0.1,0.4s0,0.3-0.1,0.4
		C19.1,17.2,18.8,17,18.7,17z M17.8,23.6c0.1,0.3,0.1,0.4,0,0.4l-2.2,2.5c-0.1,0-0.4,0.1-0.4,0c-0.7-0.4-2.1-1.7-2.9-2.2
		c-0.8-0.6-2.5-1.5-3.2-1.8c-0.3-0.1-0.3-0.3-0.1-0.4l1.4-3.1c0-0.1,0.1-0.3,0.3-0.3c1.1,0.1,2.9,1,4,1.7
		C15.7,21.3,17.1,22.6,17.8,23.6z M20.1,20.9C20.1,21.1,19.9,20.9,20.1,20.9c0-0.7-0.1-1.4-0.6-2c-0.1-0.4-0.1-0.8,0-1.3l0,0
		c0.3-0.4,0.8-0.4,1,0c0.3,0.7,0.3,1.5,0.1,2.4C20.5,20.5,20.3,20.6,20.1,20.9z M14.8,29.3L14.1,29l0.7-1.1c0.1-0.3,0.4-0.4,0.6-0.6
		l1.8-1.8c0-0.1,0.1,0,0.1,0L14.8,29.3z M12.1,33.2l0.4-1.4c0-0.3,0.1-0.6,0.3-0.7l1.1-1.7l0.7,0.4l-2.2,3.5
		C12.2,33.5,12,33.5,12.1,33.2z M5.8,38.4c0.4,0.1,0.8,0.1,1.4,0.1s1,0,1.4,0c0-0.1,0,0,0,0C7.8,38.9,6.7,38.9,5.8,38.4L5.8,38.4
		L5.8,38.4z M5.1,34.9c-1.4-0.7-2.5-2.1-3.1-3.1c-0.1-0.3-0.1-0.4,0-0.4l1.8-1.8c0.1,0,0.4-0.1,0.4,0C5,30,6.4,31.3,7.2,31.8
		c0.8,0.6,2.5,1.5,3.2,1.8c0.3,0.1,0.3,0.3,0.1,0.4l-0.8,2.4c0,0.1-0.1,0.3-0.3,0.3C8.3,36.6,6.4,35.9,5.1,34.9z M0.5,33.5
		c0.1,0.4,0.4,0.8,0.6,1.1c0.4,0.6,0.6,0.8,0.8,1.1c0,0.1,0,0.1,0,0.1H1.8C0.9,35.2,0.5,34.3,0.5,33.5C0.5,33.5,0.7,33.3,0.5,33.5z
		 M6.2,24.6l0.7,0.3l-1.1,1.7c-0.1,0.3-0.3,0.4-0.6,0.6l-1.1,1c-0.3,0.1-0.4-0.1-0.3-0.1L6.2,24.6z M8.9,20C8.9,20,9,20,8.9,20
		l-0.7,2.5c0,0.3-0.1,0.6-0.3,0.7l-0.8,1.3L6.4,24L8.9,20z"/>
</g>
<path d="M16.3,11.9c1.1,0.7,2.1,1.4,3.2,2.1c0.6,0.4,1.1-0.6,0.6-1c-1.1-0.7-2.1-1.4-3.2-2.1C16.3,10.5,15.7,11.4,16.3,11.9z"/>
<path d="M26.3,10.5c-1,0.8-2,1.5-3.1,2.4c-0.6,0.4,0,1.4,0.6,1c1-0.8,2-1.5,3.1-2.4C27.6,10.9,27,9.9,26.3,10.5z"/>
<path d="M21,9.2c0,1.3,0.1,2.5,0.1,3.8c0,0.7,1.1,0.7,1.1,0c0-1.3-0.1-2.5-0.1-3.8C22.1,8.4,21,8.4,21,9.2z"/>
</svg>
