<?xml version="1.0" encoding="utf-8"?>
<!-- Generator: Adobe Illustrator 24.1.0, SVG Export Plug-In . SVG Version: 6.00 Build 0)  -->
<svg version="1.1" id="Layer_1" xmlns="http://www.w3.org/2000/svg" xmlns:xlink="http://www.w3.org/1999/xlink" x="0px" y="0px"
	 viewBox="0 0 48 48" style="enable-background:new 0 0 48 48;" xml:space="preserve">
<style type="text/css">
	.st0{fill:none;stroke:#000000;stroke-width:0.3;stroke-miterlimit:10;}
</style>
<g>
	<path d="M31.2,10.2c-0.1-0.3-0.4-0.6-0.7-0.7c0-1.7,0.1-3.2,0.1-4.4c0.1-2-1.4-3.9-3.4-4c-0.9-0.1-1.9-0.1-2.9-0.1
		c-1,0-2.1,0-2.9,0.1c-2,0.1-3.4,2-3.4,4c0,1.3,0,2.7,0.1,4.4c-0.3,0.1-0.6,0.4-0.7,0.7c0,0-0.6,0.9-0.4,1.3c0.1,0.1,0.4,0,1.3,0
		c0,2,0,4.2,0,6.2c0,4.2-0.1,8.3-0.3,11.3c-0.1,2,1.4,3.7,3.3,3.7c0.7,0,1.9,0,3,0s2.1,0,3,0c2,0,3.4-1.7,3.3-3.7
		c-0.1-2.9-0.1-7.2-0.1-11.3c0-2,0-4.2,0.1-6.2c0.7,0,1,0.1,1.3,0C31.9,11.2,31.3,10.2,31.2,10.2z M27.3,2.4c0-0.6,0.6-0.9,1-0.6
		C29,2.4,29.8,3.3,30,4.2c0.1,0.4,0,0.7-0.1,1c0,0.1-0.1,0.1-0.1,0c-0.3-0.7-0.9-1.3-1.7-1.7C27.6,3.3,27.3,2.9,27.3,2.4L27.3,2.4z
		 M22,1.9c0-0.1,0.1-0.3,0.1-0.4s0.1-0.1,0.3-0.3c1,0,2.1,0,3.3,0c0.1,0,0.3,0.1,0.3,0.3c0,0.1,0.1,0.3,0.1,0.4
		c0.1,0.3,0,0.4-0.3,0.4c-1.3-0.1-2.4-0.1-3.7,0C22.2,2.3,21.9,2.2,22,1.9z M24.2,8.6c1.7,0,4,0.3,5.2,0.9c0.1,0.1,0.3,0.3,0.1,0.4
		l-0.6,4c0,0.1-0.1,0.3-0.4,0.3c-0.9-0.1-3.2-0.3-4.4-0.3s-3.4,0.3-4.4,0.3c-0.1,0-0.3-0.1-0.4-0.3l-0.6-4c0-0.1,0-0.3,0.3-0.4
		C20.2,8.9,22.5,8.6,24.2,8.6z M18.2,4.2c0.3-0.9,0.9-1.9,1.7-2.3c0.4-0.3,1,0,1,0.6l0,0c0,0.4-0.3,0.9-0.7,1.3
		c-0.7,0.3-1.4,0.9-1.7,1.7c0,0.1-0.1,0.1-0.1,0C18.2,4.9,18.2,4.6,18.2,4.2z M18.2,11.8c0-0.1,0.1-0.1,0.1,0l0.6,3
		c0,0.3,0.1,0.6,0.1,0.9v1.7l-0.9-0.1V11.8z M18,22.8v-5h0.9v2.4c0,0.3,0,0.6-0.1,0.9l-0.4,1.7C18.4,23.2,18,22.9,18,22.8z
		 M21.3,32.1h-0.1c-1,0-2.1-0.7-2.7-1.7c0,0,0-0.1,0,0c0.3,0.3,0.7,0.6,1.4,0.9C20.3,31.8,20.9,31.9,21.3,32.1L21.3,32.1z M19,28.1
		c-0.1-0.1-0.3-0.3-0.1-0.4l0.6-2.9c0-0.1,0.1-0.3,0.4-0.3c0.9,0.1,3.2,0.3,4.4,0.3s3.4-0.3,4.4-0.3c0.1,0,0.3,0.1,0.4,0.3l0.6,2.9
		c0,0.1,0,0.3-0.3,0.4c-1.3,0.6-3.3,1.3-5.2,1C22.3,29.2,20,28.7,19,28.1z M29.8,30.7c-0.6,0.9-1.6,1.6-2.7,1.6h-0.1c0,0,0,0,0-0.1
		c0.4-0.1,0.9-0.3,1.6-0.6C28.9,31.2,29.3,30.9,29.8,30.7C29.6,30.5,29.8,30.7,29.8,30.7z M30,22.8c0,0.1-0.3,0.3-0.4,0l-0.4-1.7
		C29,20.8,29,20.5,29,20.2v-2.4l0.9,0.1L30,22.8z M30,17.3h-0.9v-1.7c0-0.3,0-0.6,0.1-0.9l0.7-3c0-0.1,0.1,0,0.1,0L30,17.3z"/>
</g>
<path class="st0" d="M19.4,30.7c0,0,0,4.3,1.4,6.4c0,0,2,2,0,3.7c0,0-2.4,2.4-1.4,6.2h2.9c0,0-1.7-2,1.9-6.7c0,0,1.3-2.1-1.1-4.7
	c0,0-1.4-1.7-1.3-5l-2-1L19.4,30.7z"/>
<path class="st0" d="M25.2,30.8c0,0,0,4.3,1.4,6.4c0,0,2,2,0,3.7c0,0-2.4,2.4-1.4,6.2H28c0,0-1.7-2,1.9-6.7c0,0,1.3-2.1-1.1-4.7
	c0,0-1.4-1.7-1.3-5l-2-1L25.2,30.8z"/>
</svg>
