<?xml version="1.0" encoding="utf-8"?>
<!-- Generator: Adobe Illustrator 24.1.0, SVG Export Plug-In . SVG Version: 6.00 Build 0)  -->
<svg version="1.1" id="Layer_1" xmlns="http://www.w3.org/2000/svg" xmlns:xlink="http://www.w3.org/1999/xlink" x="0px" y="0px"
	 viewBox="0 0 48 48" style="enable-background:new 0 0 48 48;" xml:space="preserve">
<path d="M10.4,33.9v5.2c0,0.3,0.2,0.5,0.5,0.5h26.2c0.3,0,0.5-0.2,0.5-0.5v-5.2c0-0.3-0.2-0.5-0.5-0.5h-1.4v-2.1
	c0-0.3-0.2-0.5-0.5-0.5h-0.9v-12c0-5.7-4.6-10.4-10.4-10.4S13.8,13,13.8,18.8v12h-0.9c-0.3,0-0.5,0.2-0.5,0.5v2.1H11
	C10.7,33.4,10.4,33.5,10.4,33.9z M13.4,31.7h0.9h19.7h0.8v1.7H13.4V31.7z M14.7,18.8c0-5.2,4.2-9.3,9.3-9.3s9.3,4.2,9.3,9.3v12H14.7
	C14.7,30.8,14.7,18.8,14.7,18.8z M12.9,34.3h22.3h1.4v4.2H11.5v-4.2H12.9z"/>
<path d="M27.3,25.5h-6.6c-0.3,0-0.5,0.2-0.5,0.5c0,0.3,0.2,0.5,0.5,0.5h6.6c0.3,0,0.5-0.2,0.5-0.5C27.9,25.7,27.6,25.5,27.3,25.5z"
	/>
<path d="M27.3,28.1h-3.9c-0.3,0-0.5,0.2-0.5,0.5c0,0.3,0.2,0.5,0.5,0.5h3.9c0.3,0,0.5-0.2,0.5-0.5C27.9,28.3,27.6,28.1,27.3,28.1z"
	/>
<path d="M21.4,28.1h-0.7c-0.3,0-0.5,0.2-0.5,0.5c0,0.3,0.2,0.5,0.5,0.5h0.7c0.3,0,0.5-0.2,0.5-0.5C21.9,28.3,21.7,28.1,21.4,28.1z"
	/>
<path d="M24.2,12.7c-2.2,0-3.9,2.1-3.9,4.7s1.7,4.7,3.9,4.7s3.9-2.1,3.9-4.7S26.3,12.7,24.2,12.7z M24.2,21.2
	c-1.7,0-3.2-1.7-3.2-3.7s1.4-3.7,3.2-3.7c1.7,0,3.2,1.7,3.2,3.7S26,21.2,24.2,21.2z"/>
</svg>
