<?xml version="1.0" encoding="utf-8"?>
<!-- Generator: Adobe Illustrator 23.0.1, SVG Export Plug-In . SVG Version: 6.00 Build 0)  -->
<svg version="1.1" id="Layer_1" xmlns="http://www.w3.org/2000/svg" xmlns:xlink="http://www.w3.org/1999/xlink" x="0px" y="0px"
	 viewBox="0 0 16 16" style="enable-background:new 0 0 16 16;" xml:space="preserve">
<style type="text/css">
	.st0{fill:#FAD426;}
</style>
<rect class="st0" width="16" height="16"/>
<g>
	<path d="M9.4,10.7c1-0.5,1.6-1.6,1.6-2.9c0-1.9-1.2-3.1-2.9-3.1H4.7v9.6h1.5V11h1.6l1.9,3.3h1.7v-0.2L9.4,10.7z M8.1,9.6H6.2V6h1.9
		c0.8,0,1.4,0.8,1.4,1.8C9.5,8.8,8.9,9.6,8.1,9.6z"/>
	<polygon points="8.1,3.8 9.8,1.8 9.8,1.7 8.4,1.7 7.4,2.9 6.4,1.7 5,1.7 5,1.9 6.7,3.8 	"/>
</g>
</svg>
