<svg id="Layer_1" data-name="Layer 1" xmlns="http://www.w3.org/2000/svg" viewBox="0 0 39.97 28.03"><defs><style>.cls-1{fill:#dc3545;}</style></defs><title>angry</title><ellipse class="cls-1" cx="27.74" cy="7.75" rx="3.32" ry="5.11"/><ellipse class="cls-1" cx="12.23" cy="7.75" rx="3.32" ry="5.11"/><path class="cls-1" d="M39.82,25.49c-3.76-4.56-10.2-7.69-17.46-8.15-.72,0-1.67-.06-2.38-.05s-1.65,0-2.37.05c-7.26.46-13.7,3.59-17.46,8.15,0,0-.77,2.54,1.17,2.54,6,0,10.7-7.28,18.2-7.28h.92c7.5,0,12.21,7.28,18.21,7.28C40.59,28,39.82,25.49,39.82,25.49Z" transform="translate(0 0)"/><path class="cls-1" d="M24.47,6.59a2.24,2.24,0,0,0,3,.91L33.6,4.29a2.42,2.42,0,0,0,1.22-3.17h0a2.41,2.41,0,0,0-3.3-.79L25.39,3.54a2.23,2.23,0,0,0-.92,3.05Z" transform="translate(0 0)"/><path class="cls-1" d="M15.5,6.59a2.24,2.24,0,0,1-3,.91L6.37,4.29A2.42,2.42,0,0,1,5.15,1.12h0A2.4,2.4,0,0,1,8.44.33l6.13,3.21a2.23,2.23,0,0,1,.93,3.05Z" transform="translate(0 0)"/></svg>