<?xml version="1.0" encoding="iso-8859-1"?>
<!-- Generator: Adobe Illustrator 19.0.0, SVG Export Plug-In . SVG Version: 6.00 Build 0)  -->
<svg version="1.1" id="Layer_1" xmlns="http://www.w3.org/2000/svg" xmlns:xlink="http://www.w3.org/1999/xlink" x="0px" y="0px"
	 viewBox="0 0 512 512" style="enable-background:new 0 0 512 512;" xml:space="preserve">
<g>
	<g>
		<path d="M511.956,187.768l-0.138-6.833l-6.81-0.589c-17.284-1.493-31.414-14.474-34.362-31.567l-1.431-8.294l-8.108,2.262
			c-4.242,1.184-8.609,1.784-12.981,1.784c-26.57,0-48.186-21.617-48.186-48.186c0-3.192,0.318-6.398,0.946-9.529l1.462-7.295
			l-7.261-1.621c-17.325-3.867-29.899-19.573-29.899-37.345c0-3.255,0.41-6.49,1.217-9.613l2.2-8.509l-8.737-0.953
			c-6.241-0.68-12.541-1.025-18.726-1.025c-79.931,0-147.209,55.176-165.769,129.439c-1.502-0.039-3.006-0.06-4.517-0.06
			C76.646,149.832,0,226.478,0,320.689c0,94.21,76.646,170.857,170.857,170.857c79.932,0,147.209-55.176,165.769-129.439
			c1.501,0.04,3.006,0.06,4.517,0.06C435.354,362.167,512,285.521,512,191.31C512,190.126,511.98,188.947,511.956,187.768z
			 M170.857,476.338c-85.825,0-155.649-69.824-155.649-155.649S85.032,165.04,170.857,165.04s155.649,69.824,155.649,155.649
			S256.682,476.338,170.857,476.338z M341.143,346.959c-0.484,0-0.963-0.014-1.446-0.018c1.325-8.56,2.017-17.326,2.017-26.252
			c0-87.466-66.067-159.779-150.916-169.687c17.804-66.347,78.457-115.341,150.345-115.341c2.99,0,6.01,0.088,9.038,0.265
			c-0.133,1.537-0.199,3.082-0.199,4.629c0,22.446,14.359,42.534,35,50.181c-0.165,1.867-0.248,3.739-0.248,5.609
			c0,34.956,28.438,63.394,63.394,63.394c3.16,0,6.317-0.238,9.445-0.71c5.883,17.834,20.808,31.347,39.189,35.407
			C495.094,278.828,425.926,346.959,341.143,346.959z"/>
	</g>
</g>
<g>
	<g>
		<path d="M320.499,77.035c-12.661,0-22.963,10.301-22.963,22.963s10.301,22.963,22.963,22.963s22.963-10.301,22.963-22.963
			S333.16,77.035,320.499,77.035z M320.499,107.753c-4.275,0-7.755-3.479-7.755-7.755s3.479-7.755,7.755-7.755
			c4.276,0,7.755,3.479,7.755,7.755S324.774,107.753,320.499,107.753z"/>
	</g>
</g>
<g>
	<g>
		<path d="M229.86,108.286c-2.653,3.534-5.173,7.237-7.486,11.002l12.957,7.961c2.068-3.365,4.319-6.673,6.69-9.831L229.86,108.286z
			"/>
	</g>
</g>
<g>
	<g>
		<path d="M291.988,60.988c-20.078,7.867-38.433,20.459-53.084,36.415l11.202,10.286c13.095-14.261,29.495-25.514,47.429-32.541
			L291.988,60.988z"/>
	</g>
</g>
<g>
	<g>
		<path d="M457.45,236.224c-4.022,9.925-9.305,19.335-15.705,27.97l12.219,9.055c7.162-9.665,13.078-20.2,17.58-31.313
			L457.45,236.224z"/>
	</g>
</g>
<g>
	<g>
		<path d="M388.107,245.889c-12.662,0-22.963,10.301-22.963,22.963s10.301,22.963,22.963,22.963s22.963-10.302,22.963-22.963
			C411.07,256.19,400.769,245.889,388.107,245.889z M388.107,276.607c-4.276,0-7.755-3.48-7.755-7.755
			c0-4.276,3.479-7.755,7.755-7.755c4.276,0,7.755,3.479,7.755,7.755C395.862,273.129,392.384,276.607,388.107,276.607z"/>
	</g>
</g>
<g>
	<g>
		<path d="M341.143,147.338c-12.662,0-22.963,10.302-22.963,22.963c0,12.662,10.301,22.963,22.963,22.963
			c12.662,0,22.963-10.301,22.963-22.963C364.106,157.64,353.805,147.338,341.143,147.338z M341.143,178.057
			c-4.276,0-7.755-3.479-7.755-7.755c0-4.276,3.479-7.755,7.755-7.755c4.276,0,7.755,3.48,7.755,7.755
			S345.42,178.057,341.143,178.057z"/>
	</g>
</g>
<g>
	<g>
		<path d="M425.675,179.301c-15.694,0-28.461,12.768-28.461,28.462c0,15.694,12.768,28.462,28.461,28.462
			c15.695,0,28.462-12.769,28.462-28.462C454.137,192.069,441.369,179.301,425.675,179.301z M425.675,221.017
			c-7.308,0-13.253-5.945-13.253-13.254c0-7.308,5.945-13.254,13.253-13.254s13.254,5.945,13.254,13.254
			C438.929,215.071,432.984,221.017,425.675,221.017z"/>
	</g>
</g>
<g>
	<g>
		<path d="M180.878,186.28c-12.662,0-22.963,10.302-22.963,22.963c0,12.661,10.301,22.963,22.963,22.963
			s22.963-10.301,22.963-22.963S193.54,186.28,180.878,186.28z M180.878,216.998c-4.276,0-7.755-3.479-7.755-7.755
			c0-4.276,3.479-7.755,7.755-7.755c4.276,0,7.755,3.48,7.755,7.755S185.154,216.998,180.878,216.998z"/>
	</g>
</g>
<g>
	<g>
		<path d="M56.709,237.037c-2.657,3.539-5.176,7.241-7.486,11.002l12.958,7.96c2.064-3.361,4.315-6.669,6.689-9.831L56.709,237.037z
			"/>
	</g>
</g>
<g>
	<g>
		<path d="M118.838,189.739c-20.076,7.866-38.432,20.458-53.084,36.416l11.202,10.286c13.095-14.262,29.496-25.515,47.429-32.541
			L118.838,189.739z"/>
	</g>
</g>
<g>
	<g>
		<path d="M287.706,366.761c-4.022,9.922-9.304,19.332-15.705,27.969l12.219,9.055c7.164-9.667,13.079-20.202,17.58-31.313
			L287.706,366.761z"/>
	</g>
</g>
<g>
	<g>
		<path d="M63.394,380.006l-13.31,7.358c6.701,12.121,15.124,23.195,25.036,32.919l10.65-10.856
			C76.909,400.734,69.382,390.836,63.394,380.006z"/>
	</g>
</g>
<g>
	<g>
		<path d="M52.566,354.008l-14.657,4.055c1.522,5.499,3.394,10.958,5.567,16.228l14.059-5.797
			C55.596,363.79,53.924,358.918,52.566,354.008z"/>
	</g>
</g>
<g>
	<g>
		<path d="M217.821,375.268c-12.662,0-22.963,10.302-22.963,22.963s10.302,22.963,22.963,22.963
			c12.662,0,22.963-10.301,22.963-22.963S230.482,375.268,217.821,375.268z M217.821,405.986c-4.276,0-7.755-3.479-7.755-7.755
			c0-4.276,3.48-7.755,7.755-7.755c4.276,0,7.755,3.48,7.755,7.755C225.576,402.507,222.096,405.986,217.821,405.986z"/>
	</g>
</g>
<g>
	<g>
		<path d="M65.867,282.367c-12.662,0-22.963,10.301-22.963,22.963s10.302,22.963,22.963,22.963
			c12.661,0,22.963-10.302,22.963-22.963C88.829,292.668,78.529,282.367,65.867,282.367z M65.867,313.085
			c-4.276,0-7.755-3.48-7.755-7.755c0-4.276,3.48-7.755,7.755-7.755c4.276,0,7.755,3.479,7.755,7.755
			C73.622,309.606,70.143,313.085,65.867,313.085z"/>
	</g>
</g>
<g>
	<g>
		<path d="M170.857,276.717c-12.662,0-22.963,10.302-22.963,22.963s10.302,22.963,22.963,22.963
			c12.662,0,22.963-10.301,22.963-22.963S183.519,276.717,170.857,276.717z M170.857,307.435c-4.276,0-7.755-3.479-7.755-7.755
			c0-4.276,3.48-7.755,7.755-7.755c4.276,0,7.755,3.48,7.755,7.755C178.612,303.955,175.133,307.435,170.857,307.435z"/>
	</g>
</g>
<g>
	<g>
		<path d="M276.246,287.822c-15.694,0.001-28.461,12.769-28.461,28.462c0,15.694,12.768,28.461,28.461,28.461
			c15.694,0,28.462-12.768,28.462-28.461C304.708,300.59,291.94,287.822,276.246,287.822z M276.246,329.537
			c-7.308,0-13.253-5.945-13.253-13.253s5.945-13.254,13.253-13.254c7.309,0.001,13.254,5.946,13.254,13.254
			C289.5,323.592,283.555,329.537,276.246,329.537z"/>
	</g>
</g>
<g>
	<g>
		<path d="M129.354,397.117c-15.694,0-28.461,12.768-28.461,28.462c0,15.694,12.768,28.461,28.461,28.461
			c15.694,0,28.462-12.768,28.462-28.461C157.817,409.884,145.048,397.117,129.354,397.117z M129.354,438.831
			c-7.308,0-13.253-5.945-13.253-13.253c0-7.309,5.945-13.254,13.253-13.254c7.309,0,13.254,5.945,13.254,13.254
			C142.609,432.886,136.662,438.831,129.354,438.831z"/>
	</g>
</g>
<g>
</g>
<g>
</g>
<g>
</g>
<g>
</g>
<g>
</g>
<g>
</g>
<g>
</g>
<g>
</g>
<g>
</g>
<g>
</g>
<g>
</g>
<g>
</g>
<g>
</g>
<g>
</g>
<g>
</g>
</svg>
