<svg id="Layer_1" data-name="Layer 1" xmlns="http://www.w3.org/2000/svg" viewBox="0 0 50 25"><defs><style>.cls-1{fill:#28a745;}</style></defs><title>happy</title><ellipse class="cls-1" cx="33.57" cy="5.49" rx="3.67" ry="5.49"/><ellipse class="cls-1" cx="16.43" cy="5.49" rx="3.67" ry="5.49"/><path class="cls-1" d="M48.14,4.92c-3.71,8.93-12.56,13.64-22.89,13.64h-.5c-10.33,0-19.18-4.71-22.89-13.64A1,1,0,0,0,0,5.43l.06.23A25.15,25.15,0,0,0,22.63,24.92,23.66,23.66,0,0,0,25,25a23.66,23.66,0,0,0,2.37-.08A25.15,25.15,0,0,0,49.92,5.66L50,5.43A1,1,0,0,0,48.14,4.92Z" transform="translate(0)"/></svg>