<?xml version="1.0" encoding="UTF-8"?>
<svg width="125px" height="153px" viewBox="0 0 125 153" version="1.1" xmlns="http://www.w3.org/2000/svg" xmlns:xlink="http://www.w3.org/1999/xlink">
    <!-- Generator: sketchtool 52.4 (67378) - http://www.bohemiancoding.com/sketch -->
    <title>02F94043-FD73-4412-830D-83C16AFCEA1B</title>
    <desc>Created with sketchtool.</desc>
    <g id="Navrh-webu" stroke="none" stroke-width="1" fill="none" fill-rule="evenodd">
        <g id="1" transform="translate(-260.000000, -8.000000)">
            <g id="Header">
                <g id="logo" transform="translate(261.000000, 10.000000)">
                    <path d="M17.2452,57.5223 C18.7109,54.943 20.9354,40.219 8.2868,40.392" id="Stroke-2" stroke="#FFD300" stroke-width="3.4535" stroke-linecap="round" stroke-linejoin="round"></path>
                    <path d="M0.7965,34.592 C15.6698,20.916 25.1967,38.749 25.1967,38.749" id="Stroke-3" stroke="#FFD300" stroke-width="3.4535" stroke-linecap="round" stroke-linejoin="round"></path>
                    <path d="M6.4651,22.253 C14.2249,1.337 33.6277,9.577 45.908,23.223" id="Stroke-4" stroke="#FFD300" stroke-width="3.4535" stroke-linecap="round" stroke-linejoin="round"></path>
                    <path d="M28.0341,3.292 C34.742,-1.829 53.2065,-1.329 59.3728,7.88" id="Stroke-5" stroke="#FFD300" stroke-width="3.4535" stroke-linecap="round" stroke-linejoin="round"></path>
                    <path d="M63.7183,13.777 C63.7183,13.777 89.402,-10.347 99.95,8.131" id="Stroke-6" stroke="#FFD300" stroke-width="3.4535" stroke-linecap="round" stroke-linejoin="round"></path>
                    <path d="M93.783,15.982 C93.783,15.982 114.115,19.309 109.353,37.239" id="Stroke-7" stroke="#FFD300" stroke-width="3.4535" stroke-linecap="round" stroke-linejoin="round"></path>
                    <path d="M103.018,30.959 C97.118,30.819 92.495,40.157 96.927,51.825" id="Stroke-8" stroke="#FFD300" stroke-width="3.4535" stroke-linecap="round" stroke-linejoin="round"></path>
                    <path d="M35.8103,58.2622 C40.4857,51.844 48.3788,48.666 57.6796,53.688" id="Fill-9" fill="#000000"></path>
                    <path d="M35.8103,58.2622 C40.4857,51.844 48.3788,48.666 57.6796,53.688" id="Stroke-10" stroke="#FFFFFF" stroke-width="5.4399" stroke-linecap="round" stroke-linejoin="round"></path>
                    <path d="M68.4654,51.055 C74.0304,45.511 82.1734,44.864 88.0551,49.895" id="Fill-11" fill="#000000"></path>
                    <path d="M68.4654,51.055 C74.0304,45.511 82.1734,44.864 88.0551,49.895" id="Stroke-12" stroke="#FFFFFF" stroke-width="5.4399" stroke-linecap="round" stroke-linejoin="round"></path>
                    <path d="M27.0295,63.3393 C23.659,61.0039 20.0599,64.3962 19.0384,68.6283 C17.2584,76.0031 19.4269,82.2796 21.916,88.8997 C23.7217,93.7022 26.9278,96.2776 29.1327,89.8513" id="Fill-13"></path>
                    <path d="M27.0295,63.3393 C23.659,61.0039 20.0599,64.3962 19.0384,68.6283 C17.2584,76.0031 19.4269,82.2796 21.916,88.8997 C23.7217,93.7022 26.9278,96.2776 29.1327,89.8513" id="Stroke-14" stroke="#FFFFFF" stroke-width="3.6266" stroke-linecap="round" stroke-linejoin="round"></path>
                    <path d="M40.3052,64.6338 C43.1538,61.7812 46.8718,59.708 54.1001,60.7814" id="Fill-15" fill="#000000"></path>
                    <path d="M40.3052,64.6338 C43.1538,61.7812 46.8718,59.708 54.1001,60.7814" id="Stroke-16" stroke="#FFFFFF" stroke-width="3.6266" stroke-linecap="round" stroke-linejoin="round"></path>
                    <path d="M47.2779,62.3367 C47.0494,63.1372 46.6081,63.5514 45.3073,62.406" id="Fill-17"></path>
                    <path d="M47.2779,62.3367 C47.0494,63.1372 46.6081,63.5514 45.3073,62.406" id="Stroke-18" stroke="#FFFFFF" stroke-width="3.6266" stroke-linecap="round" stroke-linejoin="round"></path>
                    <path d="M79.4412,59.5081 C78.9102,60.1493 78.3396,60.3512 77.6089,58.7794" id="Fill-19"></path>
                    <path d="M79.4412,59.5081 C78.9102,60.1493 78.3396,60.3512 77.6089,58.7794" id="Stroke-20" stroke="#FFFFFF" stroke-width="3.6266" stroke-linecap="round" stroke-linejoin="round"></path>
                    <path d="M66.0523,49.108 C72.6894,65.5526 73.4559,74.936 71.7765,79.9323 C69.3783,87.067 61.9924,85.256 59.5904,82.287" id="Fill-21"></path>
                    <path d="M66.0523,49.108 C72.6894,65.5526 73.4559,74.936 71.7765,79.9323 C69.3783,87.067 61.9924,85.256 59.5904,82.287" id="Stroke-22" stroke="#FFFFFF" stroke-width="3.6266" stroke-linecap="round" stroke-linejoin="round"></path>
                    <path d="M84.5884,60.4654 C84.5884,60.4654 79.8798,55.666 70.9196,58.1756" id="Fill-23" fill="#000000"></path>
                    <path d="M84.5884,60.4654 C84.5884,60.4654 79.8798,55.666 70.9196,58.1756" id="Stroke-24" stroke="#FFFFFF" stroke-width="3.6266" stroke-linecap="round" stroke-linejoin="round"></path>
                    <path d="M49.6789,88.0947 C57.4754,92.6402 69.426,95.161 78.6813,92.651" id="Stroke-25" stroke="#FFFFFF" stroke-width="2.7199" stroke-linecap="round" stroke-linejoin="round"></path>
                    <path d="M51.559,93.5618 C55.1084,100.2232 73.9622,104.9721 74.9695,97.8031" id="Stroke-26" stroke="#FFFFFF" stroke-width="2.7199" stroke-linecap="round" stroke-linejoin="round"></path>
                    <path d="M31.2279,110.3519 C29.175,108.4204 24.5745,109.7979 26.4461,108.8653 C30.1108,107.0391 36.9296,101.3368 43.7247,100.4896 C50.1045,99.6943 51.1193,108.1485 43.5029,109.7714 C35.6478,111.4452 34.8071,111.1446 32.6161,111.154" id="Fill-27" fill="#000000"></path>
                    <path d="M31.2279,110.3519 C29.175,108.4204 24.5745,109.7979 26.4461,108.8653 C30.1108,107.0391 36.9296,101.3368 43.7247,100.4896 C50.1045,99.6943 51.1193,108.1485 43.5029,109.7714 C35.6478,111.4452 34.8071,111.1446 32.6161,111.154" id="Stroke-28" stroke="#FFFFFF" stroke-width="2.7199" stroke-linecap="round" stroke-linejoin="round"></path>
                    <path d="M103.593,124.8576 C106.004,123.3975 110.216,125.7054 108.58,124.4025 C105.378,121.8512 99.9,114.8505 93.432,112.6029 C87.359,110.4926 84.601,118.5485 91.71,121.7263 C99.043,125.0037 99.928,124.8853 102.068,125.3521" id="Fill-29" fill="#000000"></path>
                    <path d="M103.593,124.8576 C106.004,123.3975 110.216,125.7054 108.58,124.4025 C105.378,121.8512 99.9,114.8505 93.432,112.6029 C87.359,110.4926 84.601,118.5485 91.71,121.7263 C99.043,125.0037 99.928,124.8853 102.068,125.3521" id="Stroke-30" stroke="#FFFFFF" stroke-width="2.7199" stroke-linecap="round" stroke-linejoin="round"></path>
                    <path d="M6.8893,134.0659 C26.401,106.8512 92.388,104.7722 115.014,140.9774" id="Fill-31"></path>
                    <path d="M6.8893,134.0659 C26.401,106.8512 92.388,104.7722 115.014,140.9774" id="Stroke-32" stroke="#FFFFFF" stroke-width="10.8798" stroke-linecap="round" stroke-linejoin="round"></path>
                    <path d="M107.193,114.9028 C110.798,115.7069 109.063,119.432 107.577,121.7349 C104.668,126.2441 100.72,131.4048 95.282,132.6387 C91.477,133.5021 88.5611,130.7202 92.221,127.9486 C93.688,126.8384 99.756,120.7167 100.983,119.3463 C102.858,117.2537 102.575,116.424 105.038,114.9481" id="Fill-33" fill="#000000"></path>
                    <path d="M107.193,114.9028 C110.798,115.7069 109.063,119.432 107.577,121.7349 C104.668,126.2441 100.72,131.4048 95.282,132.6387 C91.477,133.5021 88.5611,130.7202 92.221,127.9486 C93.688,126.8384 99.756,120.7167 100.983,119.3463 C102.858,117.2537 102.575,116.424 105.038,114.9481" id="Stroke-34" stroke="#FFFFFF" stroke-width="2.7199" stroke-linecap="round" stroke-linejoin="round"></path>
                    <path d="M112.564,120.6706 C116.384,119.6739 117.226,122.9838 113.916,127.3251 C110.342,132.0119 105.541,135.9932 100.112,138.8268 C95.578,141.1933 91.927,137.7994 97.027,133.6029 C98.587,132.3196 102.041,129.2034 103.389,127.6983 C105.448,125.4001 107.493,122.3413 110.198,120.7203" id="Fill-35" fill="#000000"></path>
                    <path d="M112.564,120.6706 C116.384,119.6739 117.226,122.9838 113.916,127.3251 C110.342,132.0119 105.541,135.9932 100.112,138.8268 C95.578,141.1933 91.927,137.7994 97.027,133.6029 C98.587,132.3196 102.041,129.2034 103.389,127.6983 C105.448,125.4001 107.493,122.3413 110.198,120.7203" id="Stroke-36" stroke="#FFFFFF" stroke-width="2.7199" stroke-linecap="round" stroke-linejoin="round"></path>
                    <path d="M120.506,133.3596 C123.908,134.333 121.677,137.3445 120.646,139.6004 C118.378,144.5635 108.471,151.0261 106.347,147.8591 C103.482,143.5884 107.204,143.2938 112.349,138.6198 C114.249,136.8937 116.063,134.4335 118.455,133.2562" id="Fill-37" fill="#000000"></path>
                    <path d="M120.506,133.3596 C123.908,134.333 121.677,137.3445 120.646,139.6004 C118.378,144.5635 108.471,151.0261 106.347,147.8591 C103.482,143.5884 107.204,143.2938 112.349,138.6198 C114.249,136.8937 116.063,134.4335 118.455,133.2562" id="Stroke-38" stroke="#FFFFFF" stroke-width="2.7199" stroke-linecap="round" stroke-linejoin="round"></path>
                    <path d="M117.057,126.5993 C120.663,127.4034 118.928,131.1285 117.442,133.4314 C114.533,137.9406 109.92,143.4551 104.482,144.689 C100.677,145.5524 100.829,140.5605 101.632,139.6136 C102.822,138.2108 107.475,134.3686 108.703,132.9982 C110.578,130.9056 112.439,128.1205 114.903,126.6446" id="Fill-39" fill="#000000"></path>
                    <path d="M117.057,126.5993 C120.663,127.4034 118.928,131.1285 117.442,133.4314 C114.533,137.9406 109.92,143.4551 104.482,144.689 C100.677,145.5524 100.829,140.5605 101.632,139.6136 C102.822,138.2108 107.475,134.3686 108.703,132.9982 C110.578,130.9056 112.439,128.1205 114.903,126.6446" id="Stroke-40" stroke="#FFFFFF" stroke-width="2.7199" stroke-linecap="round" stroke-linejoin="round"></path>
                    <path d="M30.5892,103.5423 C26.9131,103.1783 27.3961,107.2592 28.0872,109.9113 C29.4403,115.1043 31.5763,121.2409 36.3554,124.1136 C39.6994,126.1238 43.339,124.3933 40.7291,120.6159 C39.6837,119.1028 35.8348,111.3905 35.0972,109.7049 C33.971,107.1309 34.4998,106.4315 32.6216,104.2592" id="Fill-41" fill="#000000"></path>
                    <path d="M30.5892,103.5423 C26.9131,103.1783 27.3961,107.2592 28.0872,109.9113 C29.4403,115.1043 31.5763,121.2409 36.3554,124.1136 C39.6994,126.1238 43.339,124.3933 40.7291,120.6159 C39.6837,119.1028 35.8348,111.3905 35.0972,109.7049 C33.971,107.1309 34.4998,106.4315 32.6216,104.2592" id="Stroke-42" stroke="#FFFFFF" stroke-width="2.7199" stroke-linecap="round" stroke-linejoin="round"></path>
                    <path d="M23.6829,107.3406 C20.3666,105.1993 18.532,108.0799 20.3183,113.2387 C22.2466,118.808 25.5622,124.0913 29.8324,128.4807 C33.3987,132.1465 37.9279,130.0647 34.3958,124.4835 C33.3156,122.7767 31.0101,118.7367 30.2001,116.8855 C28.9631,114.0586 27.9777,110.5138 25.915,108.128" id="Fill-43" fill="#000000"></path>
                    <path d="M23.6829,107.3406 C20.3666,105.1993 18.532,108.0799 20.3183,113.2387 C22.2466,118.808 25.5622,124.0913 29.8324,128.4807 C33.3987,132.1465 37.9279,130.0647 34.3958,124.4835 C33.3156,122.7767 31.0101,118.7367 30.2001,116.8855 C28.9631,114.0586 27.9777,110.5138 25.915,108.128" id="Stroke-44" stroke="#FFFFFF" stroke-width="2.7199" stroke-linecap="round" stroke-linejoin="round"></path>
                    <path d="M17.5612,111.5667 C13.885,111.2027 14.368,115.2836 15.0591,117.9357 C16.4122,123.1287 19.0691,129.8093 23.8481,132.682 C27.1922,134.6921 28.6084,129.9029 28.1421,128.7524 C27.4512,127.048 24.2327,121.9431 23.4952,120.2575 C22.369,117.6835 21.4717,114.4559 19.5936,112.2836" id="Fill-45" fill="#000000"></path>
                    <path d="M17.5612,111.5667 C13.885,111.2027 14.368,115.2836 15.0591,117.9357 C16.4122,123.1287 19.0691,129.8093 23.8481,132.682 C27.1922,134.6921 28.6084,129.9029 28.1421,128.7524 C27.4512,127.048 24.2327,121.9431 23.4952,120.2575 C22.369,117.6835 21.4717,114.4559 19.5936,112.2836" id="Stroke-46" stroke="#FFFFFF" stroke-width="2.7199" stroke-linecap="round" stroke-linejoin="round"></path>
                    <path d="M11.3349,117.2294 C8.431,117.0839 9.4152,120.3432 9.6524,122.5986 C10.1742,127.5607 16.2861,136.0437 18.7438,133.9158 C22.058,131.0464 19.2247,129.709 16.3823,124.1611 C15.3326,122.1122 14.5351,119.452 12.9632,117.736" id="Fill-47" fill="#000000"></path>
                    <path d="M11.3349,117.2294 C8.431,117.0839 9.4152,120.3432 9.6524,122.5986 C10.1742,127.5607 16.2861,136.0437 18.7438,133.9158 C22.058,131.0464 19.2247,129.709 16.3823,124.1611 C15.3326,122.1122 14.5351,119.452 12.9632,117.736" id="Stroke-48" stroke="#FFFFFF" stroke-width="2.7199" stroke-linecap="round" stroke-linejoin="round"></path>
                    <path d="M90.85,71.0467 C90.281,77.4538 87.9554,93.1181 86.2928,99.1769 C84.9017,104.2465 84.2552,103.613 81.2176,107.2451" id="Stroke-49" stroke="#FFFFFF" stroke-width="2.7199" stroke-linecap="round" stroke-linejoin="round"></path>
                    <path d="M65.1714,24.572 C59.4167,16.902 51.611,11.975 41.6505,7.88" id="Stroke-50" stroke="#FFD300" stroke-width="3.4535" stroke-linecap="round" stroke-linejoin="round"></path>
                    <path d="M72.5024,16.804 C76.0675,12.465 80.816,10.915 87.9669,9.296" id="Stroke-51" stroke="#FFD300" stroke-width="3.4535" stroke-linecap="round" stroke-linejoin="round"></path>
                    <path d="M87.9669,27.687 C91.381,25.793 95.141,24.44 99.091,24.582" id="Stroke-52" stroke="#FFD300" stroke-width="3.4535" stroke-linecap="round" stroke-linejoin="round"></path>
                    <path d="M33.6154,30.634 C32.7756,23.296 25.6678,17.932 18.302,18.558" id="Stroke-53" stroke="#FFD300" stroke-width="3.4535" stroke-linecap="round" stroke-linejoin="round"></path>
                </g>
            </g>
        </g>
    </g>
</svg>