<?xml version="1.0" encoding="iso-8859-1"?>
<!-- Generator: Adobe Illustrator 19.0.0, SVG Export Plug-In . SVG Version: 6.00 Build 0)  -->
<svg version="1.1" id="Layer_1" xmlns="http://www.w3.org/2000/svg" xmlns:xlink="http://www.w3.org/1999/xlink" x="0px" y="0px"
	 viewBox="0 0 512 512" style="enable-background:new 0 0 512 512;" xml:space="preserve">
<g>
	<g>
		<path d="M501.801,26.212H10.199C4.566,26.212,0,30.778,0,36.411v439.178c0,5.633,4.566,10.199,10.199,10.199h491.602
			c5.632,0,10.199-4.566,10.199-10.199V36.411C512,30.778,507.433,26.212,501.801,26.212z M20.398,266.199h77.514v89.753H20.398
			V266.199z M491.602,245.801h-48.956c-5.632,0-10.199,4.566-10.199,10.199c0,5.633,4.567,10.199,10.199,10.199h48.956v89.753
			h-48.956c-5.632,0-10.199,4.566-10.199,10.199c0,5.633,4.567,10.199,10.199,10.199h48.956v89.039H20.398v-89.039h77.514v66.295
			c0,5.633,4.566,10.199,10.199,10.199h295.777c5.632,0,10.199-4.566,10.199-10.199V156.048h77.514V245.801z M118.311,432.446
			V79.554h275.378v352.892H118.311z M491.602,135.649h-77.514V69.355c0-5.633-4.567-10.199-10.199-10.199H108.112
			c-5.633,0-10.199,4.566-10.199,10.199v176.446H20.398v-89.753h52.016c5.633,0,10.199-4.566,10.199-10.199
			c0-5.633-4.566-10.199-10.199-10.199H20.398V46.61h471.203V135.649z"/>
	</g>
</g>
<g>
	<g>
		<path d="M330.334,247.752l-123.41-89.753c-3.103-2.257-7.209-2.581-10.627-0.84c-3.42,1.74-5.572,5.253-5.572,9.089v179.506
			c0,3.836,2.152,7.349,5.571,9.089c1.461,0.744,3.047,1.111,4.627,1.111c2.117,0,4.224-0.659,6-1.951l123.41-89.753
			c2.639-1.919,4.2-4.985,4.2-8.248C334.534,252.737,332.972,249.67,330.334,247.752z M211.124,325.724V186.276L306.994,256
			L211.124,325.724z"/>
	</g>
</g>
<g>
	<g>
		<path d="M372.271,90.773c-5.632,0-10.199,4.566-10.199,10.199v86.693c0,5.633,4.567,10.199,10.199,10.199
			s10.199-4.566,10.199-10.199v-86.693C382.47,95.339,377.903,90.773,372.271,90.773z"/>
	</g>
</g>
<g>
	<g>
		<path d="M372.271,212.143c-5.632,0-10.199,4.566-10.199,10.199v13.259c0,5.633,4.567,10.199,10.199,10.199
			s10.199-4.566,10.199-10.199v-13.259C382.47,216.71,377.903,212.143,372.271,212.143z"/>
	</g>
</g>
<g>
</g>
<g>
</g>
<g>
</g>
<g>
</g>
<g>
</g>
<g>
</g>
<g>
</g>
<g>
</g>
<g>
</g>
<g>
</g>
<g>
</g>
<g>
</g>
<g>
</g>
<g>
</g>
<g>
</g>
</svg>
