<?xml version="1.0" encoding="UTF-8"?>
<svg width="30px" height="23px" viewBox="0 0 30 23" version="1.1" xmlns="http://www.w3.org/2000/svg" xmlns:xlink="http://www.w3.org/1999/xlink">
    <!-- Generator: sketchtool 52.4 (67378) - http://www.bohemiancoding.com/sketch -->
    <title>EE8218D2-353E-45AF-84B4-3D56E4AD9699</title>
    <desc>Created with sketchtool.</desc>
    <g id="Navrh-webu" stroke="none" stroke-width="1" fill="none" fill-rule="evenodd">
        <g id="1" transform="translate(-843.000000, -450.000000)">
            <g id="Group-3" transform="translate(250.000000, 374.000000)">
                <g id="Group" transform="translate(580.000000, 67.000000)">
                    <g id="asset-/-emoji-/-d" transform="translate(4.000000, 2.000000)">
                        <g id="Group-6" transform="translate(10.652778, 8.000000)">
                            <path d="M0.7213,20.2359 C5.0658,12.2726 21.74,12.1712 26.2223,19.6836" id="Stroke-1" stroke="#FFFFFF" stroke-width="3.4425" stroke-linecap="round" stroke-linejoin="round"></path>
                            <path d="M4.6859,1.2484 C4.6859,1.2484 10.0922,1.9851 10.0922,3.8866 C10.0922,6.3258 8.748,8.3061 7.0922,8.3061 C5.4365,8.3061 4.0922,6.3258 4.0922,3.8866 C4.0922,2.8981 4.6859,1.2484 4.6859,1.2484 Z" id="Fill-2" fill="#FFFFFF"></path>
                            <path d="M8.3332,3.8866 L1.8513,0.7212" id="Stroke-3" stroke="#FFFFFF" stroke-width="3.4425" stroke-linecap="round" stroke-linejoin="round"></path>
                            <path d="M22.2577,1.2484 C22.2577,1.2484 16.8513,1.9851 16.8513,3.8866 C16.8513,6.3258 18.1956,8.3061 19.8513,8.3061 C21.507,8.3061 22.8513,6.3258 22.8513,3.8866 C22.8513,2.8981 22.2577,1.2484 22.2577,1.2484 Z" id="Fill-4" fill="#FFFFFF"></path>
                            <path d="M18.6104,3.8866 L25.0922,0.7212" id="Stroke-5" stroke="#FFFFFF" stroke-width="3.4425" stroke-linecap="round" stroke-linejoin="round"></path>
                        </g>
                    </g>
                </g>
            </g>
        </g>
    </g>
</svg>