<?xml version="1.0" encoding="UTF-8"?>
<svg width="26px" height="26px" viewBox="0 0 26 26" version="1.1" xmlns="http://www.w3.org/2000/svg" xmlns:xlink="http://www.w3.org/1999/xlink">
    <!-- Generator: sketchtool 52.4 (67378) - http://www.bohemiancoding.com/sketch -->
    <title>B474DABE-8345-4A96-8A2A-B1C7DB5FEBB3</title>
    <desc>Created with sketchtool.</desc>
    <g id="Navrh-webu" stroke="none" stroke-width="1" fill="none" fill-rule="evenodd">
        <g id="1" transform="translate(-652.000000, -449.000000)">
            <g id="Group-3" transform="translate(250.000000, 374.000000)">
                <g id="Group-7" transform="translate(387.000000, 67.000000)">
                    <g id="asset-/-emoji-/-c" transform="translate(4.000000, 2.000000)">
                        <g id="Group-4" transform="translate(12.500000, 6.000000)">
                            <path d="M0.7213,14.101 L21.9703,23.4684" id="Stroke-1" stroke="#FFFFFF" stroke-width="3.4425" stroke-linecap="round" stroke-linejoin="round"></path>
                            <path d="M5.6987,-3.55271368e-15 C7.3544,-3.55271368e-15 8.6987,1.9803 8.6987,4.4195 C8.6987,6.8586 7.3544,8.8389 5.6987,8.8389 C4.0429,8.8389 2.6987,6.8586 2.6987,4.4195 C2.6987,1.9803 4.0429,-3.55271368e-15 5.6987,-3.55271368e-15 Z" id="Fill-2" fill="#FFFFFF"></path>
                            <path d="M18.805,-3.55271368e-15 C20.4607,-3.55271368e-15 21.805,1.9803 21.805,4.4195 C21.805,6.8586 20.4607,8.8389 18.805,8.8389 C17.1492,8.8389 15.805,6.8586 15.805,4.4195 C15.805,1.9803 17.1492,-3.55271368e-15 18.805,-3.55271368e-15 Z" id="Fill-3" fill="#FFFFFF"></path>
                        </g>
                    </g>
                </g>
            </g>
        </g>
    </g>
</svg>